{"glyphs":{"0":{"ha":688,"x_min":42,"x_max":638,"o":"m 547 863 q 633 508 629 699 q 551 157 636 318 q 308 4 460 -10 q 189 53 243 11 q 101 158 135 94 q 46 370 50 251 q 72 596 42 489 q 157 799 103 703 q 396 992 257 979 q 536 940 476 1000 q 557 917 550 926 q 563 892 564 907 q 547 863 563 876 m 486 294 q 512 448 511 358 q 500 604 513 538 q 464 757 489 692 q 443 795 460 769 q 416 844 426 821 q 408 883 406 868 q 355 868 381 883 q 308 824 329 853 q 274 774 286 796 q 246 721 261 751 q 169 421 175 571 q 192 248 167 331 q 285 129 218 165 q 331 115 308 117 q 369 119 353 114 q 403 142 386 125 q 429 173 419 160 q 452 214 439 186 q 471 254 465 242 q 486 294 476 267 z "},"1":{"ha":282,"x_min":57,"x_max":228,"o":"m 122 939 q 153 969 129 967 q 199 955 176 972 q 226 915 222 938 q 226 867 228 882 q 219 816 225 851 q 213 768 214 781 q 204 690 210 740 q 197 621 199 639 q 175 294 178 444 q 175 142 174 226 q 178 103 175 132 q 181 51 182 74 q 172 17 179 29 q 116 -6 150 -15 q 69 35 82 3 q 60 78 63 54 q 58 144 57 103 q 60 189 60 185 q 63 339 58 254 q 73 545 68 467 q 91 735 78 624 q 122 939 104 847 z "},"2":{"ha":576,"x_min":49,"x_max":521,"o":"m 514 785 q 515 676 521 731 q 489 564 510 621 q 448 463 468 507 q 390 358 428 418 q 328 265 351 299 q 263 171 306 232 q 250 154 254 160 q 249 134 243 144 q 267 125 254 124 q 432 138 392 140 q 485 114 467 136 q 483 60 503 92 q 440 36 471 43 q 360 28 410 29 q 307 26 311 28 q 242 18 289 25 q 172 9 194 11 q 107 11 149 7 q 69 28 81 15 q 61 59 58 40 q 73 98 64 78 q 98 142 82 118 q 128 184 114 165 q 158 222 143 203 q 178 247 172 240 q 198 277 183 256 q 219 308 213 299 q 238 338 225 318 q 259 369 251 357 q 278 399 267 381 q 298 432 290 418 q 315 463 306 446 q 333 495 325 479 q 349 528 342 511 q 376 596 364 560 q 398 673 389 632 q 404 754 407 714 q 386 825 401 794 q 343 855 371 854 q 287 837 315 856 q 234 796 258 818 q 196 754 210 774 q 178 718 185 739 q 167 674 172 697 q 153 638 161 651 q 92 619 135 601 q 56 657 64 631 q 59 715 49 683 q 83 772 69 746 q 111 817 96 797 q 215 913 153 874 q 340 954 276 951 q 459 909 414 958 q 514 785 504 860 z "},"3":{"ha":596,"x_min":-40,"x_max":558,"o":"m 333 597 q 505 467 453 560 q 526 250 557 374 q 415 65 499 140 q 221 -10 331 -10 q 40 60 115 -8 q 22 169 -39 133 q 50 180 38 178 q 72 178 63 182 q 92 167 82 175 q 110 151 103 160 q 129 133 118 143 q 149 118 140 124 q 229 95 186 94 q 308 118 272 96 q 372 180 344 139 q 411 266 399 221 q 419 359 424 311 q 388 442 414 407 q 362 467 376 456 q 326 487 347 478 q 294 499 304 496 q 253 510 283 503 q 219 518 224 518 q 176 538 193 525 q 155 569 160 550 q 172 611 150 588 q 254 675 174 614 q 346 849 418 800 q 326 858 338 854 q 271 860 306 864 q 203 850 236 857 q 142 851 169 843 q 107 889 114 860 q 112 922 103 908 q 144 944 121 936 q 181 954 167 951 q 221 961 196 957 q 225 961 224 961 q 228 962 226 961 q 232 963 231 963 q 432 911 358 981 q 481 825 475 871 q 463 737 488 779 q 406 661 438 694 q 333 597 374 628 z "},"4":{"ha":538,"x_min":42,"x_max":460,"o":"m 447 89 q 451 49 454 67 q 428 17 449 31 q 385 6 410 4 q 346 24 361 7 q 334 47 338 32 q 330 72 331 61 q 331 102 329 83 q 332 128 332 121 q 332 260 332 197 q 331 265 332 263 q 326 269 329 268 q 321 271 324 271 q 230 269 276 269 q 136 285 183 268 q 67 335 89 301 q 44 404 47 363 q 47 475 42 446 q 66 558 51 504 q 82 624 81 613 q 101 719 90 663 q 123 827 113 775 q 143 922 133 879 q 144 929 143 924 q 150 951 147 943 q 158 968 153 958 q 172 982 163 978 q 193 988 181 986 q 227 979 210 988 q 251 956 244 971 q 256 926 257 944 q 253 893 256 908 q 245 856 250 878 q 239 828 240 835 q 218 701 219 713 q 182 514 190 551 q 176 488 182 507 q 167 453 169 468 q 162 419 164 439 q 167 394 160 400 q 223 376 179 378 q 286 378 267 374 q 324 381 321 379 q 328 383 325 381 q 335 390 335 386 q 336 404 335 396 q 340 447 340 418 q 340 476 340 475 q 342 504 342 494 q 346 534 343 514 q 355 565 349 554 q 369 585 361 575 q 392 593 378 594 q 425 579 407 592 q 449 547 440 569 q 458 494 457 524 q 457 437 458 464 q 453 378 456 410 q 450 336 451 347 q 449 258 450 308 q 448 167 449 208 q 447 89 447 125 z "},"5":{"ha":543,"x_min":69,"x_max":535,"o":"m 499 911 q 526 889 517 904 q 534 858 535 874 q 522 828 533 842 q 492 813 511 815 q 455 813 475 810 q 407 825 435 817 q 371 836 379 833 q 231 864 303 851 q 196 519 219 735 q 199 511 196 514 q 208 508 203 508 q 333 499 275 521 q 422 430 390 476 q 467 322 454 383 q 458 196 481 261 q 292 40 424 85 q 224 19 251 26 q 159 14 197 13 q 93 32 121 15 q 107 26 101 29 q 76 65 76 40 q 97 106 75 89 q 144 124 118 124 q 338 204 297 122 q 351 303 358 243 q 310 392 343 364 q 256 410 285 411 q 205 397 228 410 q 154 378 182 385 q 104 382 126 372 q 74 422 78 394 q 76 475 69 450 q 96 635 81 507 q 114 783 107 729 q 117 800 115 789 q 121 819 119 811 q 123 838 122 828 q 124 857 124 849 q 121 875 122 869 q 117 881 119 881 q 113 882 115 882 q 108 885 111 882 q 101 897 104 889 q 101 954 85 936 q 148 971 117 972 q 210 968 179 969 q 499 911 396 949 z "},"6":{"ha":579,"x_min":-31,"x_max":528,"o":"m 181 368 q 268 401 219 394 q 361 395 317 407 q 444 356 406 383 q 504 293 482 329 q 526 210 526 257 q 497 115 526 163 q 372 17 450 40 q 220 26 294 -6 q 101 132 146 58 q 122 713 -29 351 q 296 938 189 871 q 381 943 336 963 q 397 885 422 924 q 383 868 392 876 q 341 835 372 857 q 296 793 310 813 q 233 675 267 754 q 163 376 163 506 q 169 367 163 369 q 181 368 175 364 m 383 150 q 400 236 421 189 q 332 294 379 283 q 242 274 285 306 q 214 242 233 265 q 194 214 194 219 q 211 175 192 201 q 244 138 231 149 q 315 115 278 111 q 383 150 353 119 z "},"7":{"ha":485,"x_min":68,"x_max":472,"o":"m 364 938 q 455 899 438 933 q 457 790 472 865 q 428 635 446 738 q 407 517 410 532 q 356 235 360 257 q 350 188 353 218 q 344 134 347 158 q 336 83 340 110 q 324 31 332 56 q 304 -11 315 7 q 256 -42 285 -40 q 210 -22 228 -44 q 197 33 192 1 q 244 288 203 60 q 272 455 254 344 q 306 653 290 565 q 342 819 322 742 q 339 832 343 826 q 328 838 335 838 q 183 833 197 835 q 166 832 183 833 q 144 831 149 831 q 124 831 139 831 q 103 835 110 832 q 88 842 97 838 q 74 856 78 847 q 69 876 71 865 q 80 908 68 894 q 117 927 92 921 q 165 938 142 933 q 224 942 188 942 q 279 941 261 942 q 331 939 297 940 q 364 938 364 938 z "},"8":{"ha":539,"x_min":42,"x_max":510,"o":"m 332 969 q 439 960 397 983 q 494 889 481 936 q 508 781 508 842 q 495 658 508 721 q 466 544 482 596 q 433 461 450 493 q 417 431 426 446 q 417 397 414 418 q 430 358 419 386 q 442 314 440 331 q 410 147 449 236 q 363 65 389 101 q 294 1 336 29 q 204 -26 251 -26 q 90 28 132 -26 q 44 157 49 82 q 71 332 43 224 q 101 414 78 360 q 132 496 125 468 q 135 520 136 518 q 119 543 135 522 q 83 608 94 576 q 94 761 58 682 q 194 894 126 833 q 332 969 261 956 m 326 856 q 235 780 275 826 q 193 683 196 733 q 199 647 193 665 q 212 617 206 629 q 235 586 218 604 q 260 561 253 568 q 291 535 268 554 q 318 514 314 517 q 332 517 328 506 q 392 764 388 640 q 391 792 392 779 q 387 824 390 806 q 376 850 383 842 q 357 863 369 858 q 326 856 344 868 m 249 103 q 302 183 282 136 q 322 276 322 231 q 239 429 324 354 q 230 431 235 432 q 222 425 225 431 q 169 217 185 343 q 183 109 164 164 q 249 103 201 54 z "},"9":{"ha":561,"x_min":57,"x_max":542,"o":"m 449 951 q 488 963 464 964 q 526 946 513 961 q 540 917 538 933 q 537 869 542 900 q 531 838 532 839 q 499 517 521 718 q 497 500 499 511 q 488 412 492 443 q 474 325 483 381 q 452 233 465 269 q 419 154 439 197 q 371 78 400 111 q 304 22 342 46 q 190 -2 246 -12 q 88 60 133 8 q 69 99 69 79 q 81 131 68 119 q 113 145 93 142 q 156 135 133 149 q 178 120 163 131 q 199 107 193 110 q 219 105 206 104 q 247 115 232 106 q 325 228 290 143 q 375 468 357 303 q 376 485 376 479 q 372 497 378 493 q 358 499 365 501 q 261 470 310 474 q 174 484 213 467 q 106 534 135 501 q 67 614 76 567 q 67 718 57 661 q 142 876 85 804 q 280 974 200 947 q 449 951 360 1001 m 371 642 q 383 650 376 646 q 391 656 389 654 q 395 661 393 657 q 399 671 397 665 q 401 688 400 676 q 411 772 407 738 q 415 791 413 778 q 417 810 417 804 q 417 825 417 815 q 415 840 418 835 q 408 851 413 844 q 395 863 403 858 q 375 871 388 867 q 307 869 340 881 q 250 834 274 858 q 210 778 226 810 q 196 597 149 654 q 213 581 204 588 q 233 574 222 575 q 253 573 244 572 q 275 579 263 574 q 296 588 288 585 q 317 601 304 592 q 336 615 331 610 q 355 629 342 619 q 371 642 368 639 z "},"\u0000":{"ha":0,"x_min":0,"x_max":0,"o":""},"\n":{"ha":0,"x_min":0,"x_max":0,"o":""},"\r":{"ha":0,"x_min":0,"x_max":0,"o":""}," ":{"ha":293,"x_min":0,"x_max":0,"o":""},"!":{"ha":257,"x_min":38,"x_max":210,"o":"m 186 886 q 206 839 203 869 q 201 758 208 808 q 194 704 194 707 q 190 626 193 674 q 183 535 186 578 q 178 457 179 493 q 176 382 176 438 q 172 285 175 326 q 157 211 168 244 q 121 173 149 181 q 69 189 93 165 q 48 241 50 207 q 54 331 46 275 q 63 390 63 386 q 74 540 67 442 q 87 718 81 639 q 100 868 93 797 q 135 904 104 900 q 186 886 167 908 m 96 97 q 143 73 128 97 q 147 24 158 49 q 103 0 136 0 q 50 39 61 0 q 69 92 39 75 q 96 97 82 97 z "},"\"":{"ha":347,"x_min":61,"x_max":371,"o":"m 74 957 q 108 1012 74 996 q 164 1003 142 1028 q 203 918 197 968 q 185 822 210 868 q 160 790 175 804 q 128 769 144 775 q 95 772 111 763 q 69 807 79 781 q 75 858 61 832 q 89 899 89 885 q 82 927 90 910 q 74 957 74 944 m 325 1003 q 365 918 358 968 q 346 822 371 868 q 321 790 336 804 q 289 769 306 775 q 256 772 272 763 q 231 807 240 781 q 235 858 222 832 q 250 899 249 885 q 242 927 250 910 q 235 957 233 944 q 269 1012 235 996 q 325 1003 303 1028 z "},"#":{"ha":743,"x_min":14,"x_max":713,"o":"m 661 554 q 692 540 679 551 q 708 515 704 529 q 706 485 713 500 q 681 463 699 469 q 619 458 668 453 q 556 463 571 464 q 551 461 554 461 q 535 458 538 460 q 533 446 533 456 q 532 431 533 436 q 529 374 529 399 q 528 349 528 361 q 528 333 525 336 q 544 331 531 331 q 597 326 556 332 q 622 321 613 324 q 641 310 632 318 q 654 289 650 303 q 596 229 669 233 q 543 231 578 228 l 538 232 q 529 228 533 232 q 525 219 525 225 q 526 203 525 215 q 526 186 526 192 q 526 169 526 181 q 526 151 526 157 q 523 135 525 144 q 518 119 521 125 q 510 106 515 113 q 499 96 506 100 q 485 90 493 92 q 432 101 451 82 q 408 154 413 121 q 409 185 408 160 q 407 215 410 210 q 404 225 406 219 q 401 235 403 233 q 386 236 399 236 q 378 236 381 236 q 342 238 367 236 q 305 239 317 239 q 269 236 293 239 q 265 235 268 236 q 252 230 254 232 q 250 217 250 228 q 249 214 249 215 q 249 210 249 213 q 249 204 249 207 q 244 164 247 169 q 206 131 233 138 q 153 144 168 121 q 135 208 139 167 q 135 217 135 211 q 132 229 133 228 q 124 232 131 231 q 113 233 117 233 q 88 233 106 235 q 63 233 71 231 q 26 261 39 239 q 21 297 15 282 q 41 319 26 311 q 76 329 56 328 q 92 329 78 329 q 119 330 107 329 q 134 333 132 331 q 137 344 136 335 q 138 365 138 354 q 138 378 138 376 q 147 478 142 436 q 134 478 138 478 q 119 478 131 478 q 103 480 108 479 q 88 482 99 481 q 73 486 78 483 q 60 492 68 489 q 50 501 53 496 q 44 512 47 506 q 42 526 42 518 q 47 543 43 535 q 96 575 57 568 q 120 574 101 575 q 144 575 139 572 q 156 579 153 578 q 161 583 158 581 q 164 588 164 586 q 165 598 164 590 q 168 613 167 606 q 169 617 168 614 q 177 653 174 640 q 189 681 181 665 q 212 702 197 697 q 249 701 226 707 q 276 687 267 697 q 287 659 286 676 q 286 631 288 642 q 281 597 285 619 q 279 592 279 593 q 280 585 279 588 q 282 580 281 582 q 286 576 283 578 q 292 575 289 575 q 364 574 328 575 q 388 572 364 574 q 413 572 413 569 q 422 573 417 572 q 427 574 426 574 q 429 574 428 574 q 431 576 431 575 q 432 582 431 578 q 435 590 433 586 q 440 627 439 601 q 448 671 442 653 q 471 698 454 689 q 510 702 488 707 q 546 683 533 697 q 550 590 563 661 q 549 583 549 585 q 551 569 547 575 q 564 563 556 563 q 661 554 617 558 m 414 389 q 419 456 415 422 q 415 466 419 461 q 406 471 411 471 q 343 474 379 472 q 320 476 338 474 q 294 478 303 478 q 272 475 285 478 q 253 351 251 465 q 258 341 253 346 q 268 336 263 336 q 365 336 307 336 q 378 335 367 336 q 397 333 390 333 q 410 336 404 333 q 413 349 413 338 q 414 374 414 360 q 414 389 414 388 z "},"$":{"ha":571,"x_min":0,"x_max":567,"o":"m 540 782 q 531 700 567 722 q 454 711 493 676 q 437 730 450 715 q 415 751 424 744 q 393 764 407 758 q 364 765 379 769 q 351 765 357 764 q 350 764 350 765 q 347 744 350 756 q 347 735 347 740 q 346 723 346 729 q 346 714 346 717 q 340 642 343 679 q 328 476 336 589 q 326 447 325 458 q 338 424 326 436 q 354 407 344 415 q 375 390 364 399 q 393 376 386 382 q 488 172 508 271 q 425 79 476 119 q 370 49 407 64 q 321 26 333 33 q 306 14 307 18 q 306 -8 304 10 q 307 -39 306 -26 q 310 -76 307 -44 q 313 -121 314 -107 q 290 -159 310 -146 q 246 -165 271 -172 q 235 -160 240 -164 q 226 -154 229 -157 q 219 -146 222 -151 q 213 -137 215 -140 q 208 -126 211 -133 q 205 -116 206 -119 q 203 -104 204 -112 q 201 -93 201 -96 q 199 -81 200 -90 q 199 -71 199 -72 q 198 -41 199 -67 q 193 -5 197 -15 q 192 10 189 6 l 190 11 q 172 15 183 13 q 163 17 168 17 q 152 19 158 18 q 143 19 146 19 q 136 21 140 19 q 114 25 122 24 q 90 30 106 26 q 63 37 74 33 q 40 46 53 40 q 19 58 26 51 q 7 74 13 65 q 2 94 1 83 q 10 118 3 106 q 47 150 22 143 q 92 153 71 157 q 146 140 114 149 q 192 129 178 131 q 206 326 194 193 q 207 368 210 354 q 186 401 204 382 q 133 465 154 435 q 84 592 92 526 q 108 726 76 658 q 208 829 142 790 q 223 835 211 831 q 239 844 235 840 q 244 850 242 847 q 247 855 246 853 q 249 861 249 857 q 250 868 250 865 q 250 876 250 871 q 251 883 250 881 q 251 905 251 889 q 253 932 251 921 q 260 951 256 943 q 292 974 271 971 q 332 965 314 978 q 358 923 356 951 q 356 871 361 894 q 399 870 378 872 q 443 862 421 868 q 483 845 465 856 q 517 819 501 835 q 540 782 532 803 m 222 550 q 236 711 229 628 q 203 643 206 679 q 222 550 199 596 m 360 169 q 313 283 389 206 q 306 139 307 203 q 360 169 344 151 z "},"%":{"ha":815,"x_min":40,"x_max":783,"o":"m 353 699 q 286 594 342 632 q 167 576 231 557 q 74 653 106 596 q 54 775 42 711 q 116 892 68 843 q 226 919 164 942 q 244 910 236 915 q 260 893 251 904 q 272 878 269 882 q 295 859 275 876 q 324 829 315 842 q 353 699 364 769 m 169 736 q 197 685 172 701 q 233 699 219 669 q 189 808 258 751 q 169 736 168 760 m 589 715 q 519 563 553 638 q 392 274 453 414 q 333 139 361 206 q 317 92 328 125 q 296 35 307 60 q 272 -7 285 10 q 207 -23 247 -37 q 169 32 167 -8 q 182 77 172 53 q 207 133 192 101 q 228 175 222 164 q 283 308 256 242 q 553 886 413 607 q 592 914 565 913 q 639 895 619 915 q 651 849 658 875 q 635 805 646 828 q 610 756 625 782 q 589 715 596 729 m 726 301 q 744 126 782 238 q 639 -14 713 29 q 485 10 556 -64 q 440 101 447 49 q 448 203 433 154 q 493 296 463 251 q 543 338 515 329 q 572 338 550 342 q 599 333 593 333 q 623 334 608 333 q 646 335 638 335 q 667 335 654 336 q 688 330 679 333 q 706 319 696 326 q 726 301 717 313 m 633 167 q 639 229 646 217 q 629 240 632 239 q 617 242 619 240 q 607 243 611 243 q 600 242 603 243 q 594 240 597 242 q 590 238 592 239 q 585 232 588 236 q 583 225 583 228 q 579 217 582 222 q 575 207 576 211 q 556 121 551 154 q 566 90 558 108 q 581 72 574 72 q 612 108 594 71 q 633 167 629 144 z "},"&":{"ha":603,"x_min":-12,"x_max":540,"o":"m 540 156 q 533 130 539 142 q 513 111 526 118 q 489 99 500 104 q 460 90 478 94 q 436 82 442 85 q 449 53 438 76 q 467 17 461 31 q 472 -16 472 3 q 458 -46 472 -35 q 417 -58 439 -62 q 378 -36 394 -54 q 360 -2 369 -26 q 343 31 350 22 q 336 39 339 36 q 331 43 333 42 q 325 44 328 44 q 319 42 322 43 q 311 40 317 42 q 299 36 306 38 q 263 26 279 31 q 125 21 182 7 q 23 93 57 36 q 18 213 -11 150 q 48 258 29 235 q 77 292 67 282 q 117 329 88 303 q 172 382 119 332 q 195 410 193 401 q 190 447 197 419 q 185 471 189 454 q 160 573 168 535 q 146 672 153 611 q 150 781 139 732 q 190 867 161 829 q 284 928 225 913 q 394 918 343 943 q 463 856 438 897 q 494 769 488 814 q 494 676 501 724 q 364 417 478 546 q 351 403 360 411 q 340 392 343 394 q 335 382 338 389 q 333 368 332 375 q 338 350 333 361 q 367 261 351 306 q 372 239 367 260 q 383 203 378 218 q 394 185 389 188 q 413 187 399 182 q 444 199 426 192 q 464 207 461 206 q 516 200 492 215 q 540 156 540 185 m 149 136 q 162 130 149 136 q 207 128 175 124 q 289 150 239 133 q 236 290 260 218 q 202 261 231 285 q 155 218 174 238 q 131 181 136 199 q 149 136 122 149 m 294 508 q 378 701 369 603 q 358 799 382 750 q 288 808 331 860 q 265 765 272 790 q 258 718 258 740 q 262 660 257 696 q 271 607 267 625 q 284 552 275 589 q 294 508 293 515 z "},"'":{"ha":243,"x_min":96,"x_max":244,"o":"m 199 1003 q 238 918 232 968 q 219 822 244 868 q 194 790 210 804 q 163 769 179 775 q 130 772 146 763 q 104 807 114 781 q 110 858 96 832 q 124 899 124 885 q 117 927 125 910 q 108 957 108 944 q 142 1012 108 996 q 199 1003 176 1028 z "},"(":{"ha":308,"x_min":25,"x_max":339,"o":"m 319 985 q 210 657 244 813 q 190 54 135 336 q 236 -99 207 -29 q 247 -122 239 -107 q 260 -147 256 -137 q 269 -173 265 -157 q 269 -199 274 -189 q 253 -221 265 -211 q 227 -234 242 -231 q 199 -233 213 -237 q 167 -212 183 -229 q 146 -183 151 -194 q 128 -147 140 -172 q 58 457 26 65 q 233 1065 86 789 q 272 1090 246 1086 q 318 1079 299 1094 q 328 1069 324 1075 q 335 1058 333 1063 q 338 1047 338 1054 q 338 1035 338 1039 q 334 1022 338 1031 q 330 1010 331 1013 q 324 997 329 1007 q 319 985 319 988 z "},")":{"ha":319,"x_min":-60,"x_max":260,"o":"m 257 563 q 213 161 260 346 q 143 -40 185 53 q 100 -124 122 -83 q 69 -174 75 -169 q 60 -169 63 -182 q 22 -224 64 -210 q -46 -208 -21 -237 q -58 -183 -57 -197 q -52 -152 -58 -168 q -37 -123 -46 -136 q -18 -93 -29 -110 q -3 -69 -7 -76 q 110 247 76 81 q 127 356 121 301 q 133 472 133 410 q 133 577 133 535 q 124 693 132 619 q 113 797 117 767 q 98 913 110 828 q 83 1021 86 999 q 101 1060 81 1047 q 147 1069 122 1074 q 172 1059 161 1067 q 188 1038 182 1051 q 198 1014 194 1024 q 205 985 201 1004 q 210 960 208 965 q 257 563 254 764 z "},"*":{"ha":501,"x_min":64,"x_max":513,"o":"m 396 747 q 391 740 392 746 q 394 732 390 735 q 403 726 397 731 q 420 713 414 718 q 438 698 426 708 q 456 681 450 688 q 470 664 463 674 q 481 646 478 654 q 483 628 483 638 q 478 608 482 618 q 441 585 464 585 q 402 594 418 585 q 364 624 386 604 q 357 624 361 626 q 353 617 353 622 q 353 590 354 603 q 348 565 351 576 q 334 547 344 554 q 307 540 324 540 q 240 621 251 543 q 235 627 239 625 q 228 626 231 629 q 192 598 206 607 q 156 576 179 589 q 113 569 132 564 q 79 597 94 575 q 74 615 75 606 q 78 633 74 624 q 89 652 83 643 q 106 672 94 661 q 126 689 117 682 q 149 706 135 696 q 169 720 163 715 q 189 733 176 725 q 194 738 192 736 q 199 746 199 740 q 193 754 199 751 q 176 763 188 757 q 156 772 164 768 q 135 783 147 776 q 114 796 122 790 q 95 809 106 801 q 80 823 85 817 q 69 838 75 829 q 65 854 64 847 q 69 871 67 861 q 87 893 76 886 q 113 899 97 900 q 140 895 128 897 q 170 883 151 893 q 198 867 189 872 q 224 851 207 863 q 233 851 228 849 q 238 860 238 854 q 241 889 239 878 q 249 913 243 900 q 266 931 254 925 q 294 936 278 938 q 337 913 328 933 q 344 854 346 892 q 349 848 344 850 q 356 849 353 846 q 429 890 394 872 q 483 885 453 903 q 511 840 513 868 q 503 819 510 829 q 479 797 496 808 q 453 780 463 786 q 422 761 444 774 q 396 747 399 749 z "},"+":{"ha":438,"x_min":8,"x_max":431,"o":"m 383 585 q 418 556 407 578 q 417 511 429 533 q 390 492 408 497 q 356 488 371 488 q 316 491 340 488 q 283 494 292 494 q 286 460 283 489 q 288 415 289 432 q 283 376 288 399 q 267 341 279 353 q 233 329 254 329 q 204 334 217 329 q 185 351 192 339 q 174 374 178 363 q 169 403 169 385 q 168 433 168 422 q 169 464 168 444 q 171 489 171 483 q 153 486 167 489 q 62 479 114 472 q 22 536 10 486 q 38 559 26 550 q 60 571 50 568 q 89 578 71 574 q 96 579 93 578 q 112 581 100 579 q 135 583 124 582 q 158 585 147 583 q 172 590 169 588 q 175 608 175 593 q 174 639 175 622 q 172 658 172 656 q 172 676 172 661 q 174 698 172 692 q 177 715 175 704 q 185 732 179 725 q 200 743 190 739 q 231 749 214 750 q 261 738 249 747 q 273 724 268 732 q 279 706 278 717 q 281 690 281 696 q 283 669 282 683 q 283 651 283 656 q 283 614 283 632 q 304 594 274 585 q 328 590 314 592 q 358 588 343 589 q 383 585 374 588 z "},",":{"ha":221,"x_min":24,"x_max":160,"o":"m 72 121 q 141 69 122 125 q 140 -44 160 14 q 76 -101 121 -101 q 47 -95 58 -101 q 31 -81 36 -89 q 26 -57 26 -72 q 26 -33 25 -42 q 31 -6 28 -24 q 32 1 31 -1 q 31 29 33 14 q 28 60 29 44 q 29 88 28 75 q 42 110 31 101 q 72 121 53 119 z "},"-":{"ha":397,"x_min":15,"x_max":385,"o":"m 344 533 q 373 511 363 529 q 381 475 383 493 q 362 448 376 454 q 322 440 347 442 q 250 440 297 439 q 183 442 203 442 q 127 435 175 442 q 58 433 79 428 q 29 453 42 438 q 17 486 17 468 q 31 515 17 507 q 71 529 46 524 q 344 533 214 563 z "},".":{"ha":219,"x_min":10,"x_max":164,"o":"m 88 126 q 146 93 129 126 q 144 28 163 60 q 85 1 126 -3 q 28 38 44 4 q 28 101 11 71 q 88 126 46 131 z "},"/":{"ha":415,"x_min":-22,"x_max":439,"o":"m 336 957 q 374 985 349 985 q 419 965 400 986 q 433 917 439 943 q 420 866 431 893 q 395 807 410 839 q 374 758 381 775 q 347 686 368 742 q 314 600 325 631 q 201 304 246 421 q 140 146 169 221 q 124 100 135 133 q 103 41 114 67 q 81 0 93 15 q 38 -23 63 -22 q -5 -5 13 -24 q -18 40 -22 14 q -8 83 -15 61 q 12 135 0 106 q 28 176 24 165 q 88 331 50 238 q 336 957 276 814 z "},":":{"ha":238,"x_min":17,"x_max":178,"o":"m 94 368 q 37 403 51 371 q 42 465 22 435 q 106 493 63 494 q 162 459 147 492 q 156 395 176 426 q 94 368 136 364 m 136 172 q 163 125 161 151 q 147 83 164 99 q 105 60 129 67 q 54 72 81 54 q 26 131 18 97 q 67 177 33 165 q 136 172 100 189 z "},";":{"ha":243,"x_min":18,"x_max":182,"o":"m 154 464 q 163 397 181 426 q 110 369 146 368 q 46 393 75 369 q 33 435 32 415 q 49 469 35 456 q 82 488 64 482 q 121 488 100 494 q 154 464 142 482 m 122 167 q 161 99 156 139 q 143 24 167 60 q 108 -10 129 3 q 63 -19 86 -22 q 28 11 40 -15 q 33 51 19 31 q 47 83 46 72 q 39 107 47 93 q 31 131 31 121 q 66 174 32 161 q 122 167 100 186 z "},"<":{"ha":392,"x_min":26,"x_max":344,"o":"m 311 356 q 343 313 342 343 q 315 268 344 283 q 297 263 307 264 q 280 263 288 263 q 260 267 272 264 q 241 274 249 271 q 222 285 233 278 q 204 294 210 292 q 187 305 199 297 q 174 314 175 313 q 33 450 60 386 q 28 476 28 463 q 33 501 28 489 q 44 523 38 513 q 61 544 50 533 q 81 563 72 556 q 101 581 89 571 q 119 597 114 592 q 148 627 125 603 q 185 665 171 651 q 222 688 199 678 q 263 690 244 697 q 292 668 285 682 q 296 639 300 654 q 282 610 292 624 q 260 583 272 596 q 220 546 246 569 q 188 515 194 522 q 174 503 188 514 q 157 486 160 493 q 146 474 150 476 l 146 472 q 157 460 151 471 q 311 356 189 404 z "},"=":{"ha":519,"x_min":26,"x_max":489,"o":"m 117 556 q 70 559 94 547 q 39 593 46 571 q 99 654 28 636 q 144 661 121 660 q 203 663 168 663 q 251 663 239 663 q 287 665 263 664 q 326 667 311 667 q 361 667 340 668 q 399 664 382 667 q 458 617 446 656 q 436 569 469 582 q 404 565 422 564 q 253 565 378 567 q 219 566 242 565 q 183 567 197 567 q 151 565 169 568 q 117 556 132 563 m 436 479 q 460 469 449 476 q 480 452 472 463 q 488 429 488 442 q 479 403 489 417 q 454 387 471 392 q 424 382 438 382 q 390 384 411 382 q 361 386 368 386 q 210 382 269 386 q 192 378 203 381 q 172 374 181 376 q 151 371 163 372 q 131 369 140 369 q 110 370 121 368 q 93 376 100 372 q 74 390 82 381 q 63 410 67 399 q 61 433 58 422 q 72 452 64 444 q 92 464 79 460 q 113 470 104 468 q 138 474 122 472 q 158 476 154 475 q 436 479 347 506 z "},">":{"ha":336,"x_min":18,"x_max":331,"o":"m 276 538 q 274 408 331 469 q 147 293 232 363 q 119 270 131 278 q 91 255 108 263 q 59 252 74 247 q 31 275 44 257 q 19 302 19 289 q 28 328 18 315 q 46 349 38 340 q 71 369 54 357 q 93 386 88 382 q 167 456 119 411 q 174 461 168 457 q 183 469 179 465 q 188 476 188 474 q 183 486 189 479 q 172 499 178 493 q 159 513 165 506 q 151 519 153 519 q 117 553 150 522 q 69 606 85 583 q 56 649 54 629 q 94 685 60 676 q 149 675 129 693 q 276 538 204 631 z "},"?":{"ha":475,"x_min":43,"x_max":475,"o":"m 422 969 q 441 945 422 969 q 467 851 460 921 q 451 719 474 782 q 382 575 429 656 q 274 296 300 435 q 269 261 272 289 q 261 218 265 233 q 248 183 257 203 q 222 158 239 164 q 178 158 204 151 q 153 173 163 163 q 140 201 143 183 q 137 233 138 218 q 141 272 136 247 q 149 308 146 296 q 160 342 153 319 q 167 368 167 365 q 293 644 201 488 q 322 702 310 674 q 345 766 335 731 q 354 835 356 801 q 339 896 353 869 q 150 828 300 969 q 142 819 144 822 q 100 801 122 801 q 58 821 78 800 q 46 842 49 832 q 50 865 43 853 q 62 883 57 878 q 81 904 67 889 q 314 1017 185 1017 q 422 969 383 1017 m 239 79 q 257 3 285 46 q 186 -31 231 -35 q 147 -15 165 -29 q 123 46 113 13 q 168 89 133 79 q 239 79 203 99 z "},"@":{"ha":951,"x_min":39,"x_max":908,"o":"m 774 789 q 872 661 838 738 q 907 505 907 585 q 881 344 907 425 q 825 252 863 290 q 735 207 788 214 q 646 224 688 200 q 585 292 604 247 q 368 179 478 147 q 283 247 313 196 q 257 358 254 297 q 290 481 260 424 q 366 572 319 539 q 473 612 413 606 q 597 581 533 618 q 601 595 599 585 q 606 610 604 606 q 610 624 607 615 q 617 637 614 632 q 627 647 621 642 q 642 653 633 651 q 678 651 658 658 q 707 631 697 644 q 715 607 714 621 q 714 584 715 593 q 707 558 713 575 q 700 536 701 540 q 679 396 678 443 q 713 303 682 308 q 740 316 725 300 q 764 349 756 332 q 778 378 772 365 q 799 510 801 436 q 765 639 797 585 q 616 753 715 724 q 414 760 517 783 q 168 474 217 714 q 174 228 143 350 q 293 32 204 107 q 363 -3 324 6 q 437 -10 403 -12 q 515 3 471 -7 q 559 8 535 10 q 597 -11 583 7 q 607 -51 613 -31 q 581 -82 601 -71 q 465 -114 540 -107 q 344 -111 390 -121 q 151 11 235 -93 q 69 165 97 81 q 40 333 40 249 q 57 506 39 417 q 153 722 88 636 q 335 846 218 807 q 485 874 410 869 q 638 857 561 878 q 774 789 715 836 m 553 456 q 567 471 558 465 q 429 488 478 531 q 388 422 401 464 q 376 340 374 379 q 398 288 381 300 q 446 304 415 276 q 553 456 490 349 z "},"A":{"ha":710,"x_min":-19,"x_max":690,"o":"m 640 347 q 679 318 668 342 q 672 271 690 294 q 660 259 667 264 q 642 253 653 254 q 624 250 632 251 q 603 250 617 249 q 584 252 590 251 q 563 256 578 253 q 544 258 547 258 q 534 256 539 260 q 529 246 529 251 q 532 156 529 217 q 535 64 535 94 q 522 16 533 33 q 482 0 511 -1 q 447 13 461 1 q 424 47 432 25 q 413 90 417 69 q 410 144 410 111 q 410 194 410 176 q 414 239 411 211 q 414 256 414 250 q 401 269 415 268 q 300 267 351 269 q 292 267 297 267 q 284 266 286 267 q 278 265 282 265 q 274 265 275 265 q 269 263 272 264 q 265 260 267 261 q 262 257 264 260 q 258 252 260 254 q 253 246 256 250 q 244 230 249 239 q 234 209 239 221 q 226 192 229 197 q 175 83 199 133 q 167 65 172 78 q 158 44 161 53 q 147 26 154 35 q 132 11 140 17 q 80 8 110 -3 q 44 46 50 18 q 45 72 42 58 q 60 108 49 86 q 74 132 72 131 q 119 232 94 178 q 119 240 122 236 q 111 243 115 244 q 90 240 99 242 q 67 237 82 239 q 44 235 53 235 q 22 237 35 236 q 3 242 8 238 q -11 253 -3 247 q -18 270 -19 260 q -15 294 -17 281 q -8 308 -14 301 q 1 318 -3 314 q 15 325 6 322 q 30 329 25 328 q 46 333 35 331 q 60 336 57 336 q 119 349 89 343 q 160 356 139 351 q 178 363 175 360 q 189 376 182 365 q 208 407 199 389 q 223 440 217 425 q 238 474 229 454 q 251 507 246 494 q 311 633 254 511 q 435 879 386 792 q 444 900 438 886 q 457 925 451 914 q 472 951 463 936 q 488 978 481 967 q 506 999 496 989 q 527 1013 517 1008 q 551 1017 538 1018 q 576 1010 564 1017 q 607 977 592 1000 q 624 936 622 954 q 610 865 626 914 q 593 808 594 815 q 551 514 579 738 q 538 394 543 446 q 537 381 538 385 q 538 372 536 376 q 539 365 539 367 q 543 363 539 364 q 549 361 547 361 q 558 360 550 361 q 571 358 567 358 q 640 347 607 353 m 318 386 q 319 375 315 381 q 329 368 322 369 q 421 371 411 363 q 427 387 425 372 q 430 418 429 401 q 431 451 431 435 q 432 472 432 468 q 456 656 444 578 q 452 660 456 660 q 447 658 449 661 q 318 386 400 561 z "},"B":{"ha":615,"x_min":-17,"x_max":614,"o":"m 371 961 q 481 954 426 968 q 574 899 535 940 q 608 799 613 858 q 591 744 607 772 q 563 703 575 717 q 522 660 550 689 q 397 543 454 592 q 394 533 393 539 q 400 525 394 528 q 531 394 490 488 q 540 207 572 301 q 425 71 510 122 q 340 33 386 47 q 308 28 332 31 q 263 21 283 25 q 239 11 243 17 q 231 -2 233 6 q 226 -15 228 -10 q 217 -24 224 -19 q 200 -32 211 -29 q 146 -17 168 -37 q 131 6 144 -17 q 126 16 125 14 q 126 20 128 18 q 115 28 125 22 q 76 41 104 35 q 35 56 47 47 q -1 88 14 68 q -15 130 -15 107 q 10 165 -15 153 q 39 172 22 175 q 65 164 56 168 q 89 150 74 160 q 114 136 104 140 q 122 135 118 135 q 129 140 126 136 q 132 147 132 143 q 225 796 147 454 q 222 804 226 801 q 214 804 218 807 q 194 786 207 797 q 173 767 182 775 q 152 749 164 758 q 130 736 140 740 q 107 733 119 732 q 83 742 94 735 q 114 860 21 781 q 199 914 151 890 q 220 922 203 915 q 244 933 238 928 q 263 957 258 942 q 274 981 268 972 q 326 1000 290 1006 q 371 961 363 994 m 414 207 q 433 332 447 256 q 364 436 418 408 q 300 446 331 454 q 294 443 299 444 q 283 439 285 440 q 278 428 281 438 q 275 418 276 422 q 271 403 272 411 q 269 387 269 394 q 268 370 268 379 q 267 356 268 361 q 249 135 257 264 q 252 126 249 129 q 261 124 256 122 q 414 207 368 133 m 451 743 q 460 751 453 744 q 469 761 467 758 q 477 771 471 764 q 485 781 483 778 q 491 792 488 785 q 495 803 494 799 q 497 815 496 808 q 495 827 497 821 q 489 839 493 833 q 404 867 469 871 q 351 859 357 864 q 342 837 346 854 q 336 797 339 819 q 333 771 333 775 q 304 617 317 693 q 307 612 304 614 q 313 613 310 610 q 451 743 392 678 z "},"C":{"ha":571,"x_min":7,"x_max":549,"o":"m 415 931 q 490 897 457 924 q 538 832 522 871 q 546 803 543 818 q 547 774 549 789 q 537 751 546 760 q 510 740 528 742 q 481 746 493 739 q 463 760 468 753 q 451 783 458 768 q 438 806 443 799 q 403 828 425 824 q 361 828 382 833 q 322 811 340 822 q 160 513 217 743 q 194 199 110 303 q 329 140 247 135 q 397 161 351 142 q 467 179 442 181 q 513 152 496 176 q 514 104 531 128 q 383 43 489 68 q 227 48 303 25 q 101 132 151 71 q 29 439 8 244 q 53 565 36 499 q 104 703 71 632 q 180 829 138 775 q 284 913 222 883 q 415 931 346 943 z "},"D":{"ha":588,"x_min":-31,"x_max":575,"o":"m 118 985 q 305 980 215 1008 q 457 881 394 951 q 543 715 519 811 q 547 451 574 581 q 444 206 519 321 q 370 107 410 153 q 280 19 331 61 q 170 -47 229 -24 q 51 -64 111 -69 q 23 -61 33 -62 q -2 -55 13 -60 q -23 -40 -17 -50 q -28 -14 -29 -29 q 38 36 -26 31 q 72 39 71 39 q 77 42 75 39 q 81 48 79 44 q 82 56 83 51 l 78 76 q 75 140 75 103 q 81 279 75 163 q 175 883 97 619 q 173 892 176 889 q 164 896 169 896 q 125 898 140 893 q 99 921 110 903 q 91 959 86 939 q 118 985 96 979 m 422 435 q 440 553 438 492 q 433 678 443 615 q 389 794 422 742 q 303 874 356 847 q 292 874 297 876 q 288 867 288 872 q 218 492 232 601 q 199 108 204 382 q 201 103 199 104 q 208 103 204 101 q 342 252 285 164 q 422 435 399 340 z "},"E":{"ha":488,"x_min":-18,"x_max":517,"o":"m 461 940 q 501 917 486 936 q 512 878 517 899 q 479 847 507 857 q 451 844 456 844 q 422 847 447 843 q 393 851 396 850 q 373 854 392 851 q 346 857 354 857 q 340 856 343 856 q 325 853 328 856 q 318 842 322 851 q 315 833 317 836 q 208 471 242 665 q 210 463 207 467 q 219 461 214 460 q 253 468 228 463 q 294 476 279 474 q 329 475 310 478 q 360 461 349 472 q 376 419 379 442 q 349 385 372 396 q 240 363 318 369 q 230 363 238 363 q 215 363 222 363 q 200 363 207 363 q 192 361 193 363 q 188 349 189 358 q 186 326 186 339 q 185 313 186 314 q 180 275 183 301 q 175 237 176 249 q 171 199 174 225 q 169 160 168 172 q 171 122 169 149 q 175 113 171 117 q 185 111 179 110 q 216 117 190 111 q 254 124 242 122 q 292 129 267 126 q 331 131 317 132 q 363 126 346 131 q 389 114 379 122 q 410 73 417 92 q 383 43 403 54 q 339 28 363 32 q 89 -4 286 18 q 44 -6 68 -6 q 1 7 19 -7 q -14 49 -17 21 q 24 86 -12 76 q 36 88 31 88 q 44 89 42 89 q 49 90 47 89 q 53 90 51 90 q 55 93 54 90 q 56 99 56 96 q 57 110 57 103 q 57 141 58 121 q 56 169 56 161 q 83 426 57 250 q 211 876 125 701 q 188 879 206 878 q 160 883 171 881 q 137 889 150 885 q 115 901 124 893 q 101 922 106 910 q 101 958 93 942 q 128 981 108 975 q 154 983 146 983 q 182 979 163 983 q 207 975 201 975 q 234 972 219 974 q 264 968 249 969 q 290 965 279 967 q 461 940 400 953 z "},"F":{"ha":636,"x_min":53,"x_max":696,"o":"m 647 976 q 683 949 672 969 q 686 908 694 929 q 653 881 678 888 q 615 878 629 878 q 575 885 601 879 q 538 890 549 890 q 404 897 479 896 q 343 899 379 899 q 306 894 313 899 q 290 861 300 890 q 257 747 260 756 q 201 510 218 610 q 206 496 200 501 q 221 492 213 490 q 257 499 243 496 q 296 505 271 501 q 338 508 321 508 q 373 503 354 507 q 403 490 392 500 q 418 465 414 481 q 411 429 422 443 q 376 409 400 415 q 329 400 351 403 q 279 396 307 397 q 243 393 251 394 q 231 392 240 393 q 213 391 222 392 q 196 389 204 390 q 185 385 188 388 q 180 365 181 379 q 179 331 179 350 q 179 308 179 311 q 178 193 175 250 q 182 159 178 183 q 188 115 186 135 q 190 72 190 94 q 180 35 189 50 q 153 17 171 21 q 113 17 131 11 q 85 42 96 24 q 68 80 75 60 q 58 131 61 100 q 55 188 56 163 q 56 247 54 213 q 58 299 57 281 q 63 345 60 318 q 65 375 65 372 q 183 899 92 678 q 168 899 182 899 q 149 899 154 899 q 133 900 144 899 q 115 903 121 901 q 101 909 110 906 q 89 918 93 913 q 82 932 85 924 q 79 951 79 940 q 85 978 78 968 q 108 991 93 988 q 134 996 122 994 q 165 996 146 997 q 190 994 185 994 q 301 997 222 994 q 424 999 381 999 q 531 994 467 999 q 647 976 596 989 z "},"G":{"ha":640,"x_min":36,"x_max":600,"o":"m 454 489 q 544 465 510 492 q 589 395 579 438 q 596 301 599 353 q 581 203 593 249 q 550 121 568 157 q 484 28 525 67 q 397 -26 443 -10 q 297 -28 350 -42 q 196 29 243 -15 q 83 215 119 100 q 42 451 46 329 q 85 747 36 600 q 236 975 135 893 q 344 1026 286 1015 q 461 1011 403 1036 q 513 974 485 1000 q 558 914 542 947 q 546 857 574 881 q 506 845 526 838 q 471 868 485 853 q 438 901 457 883 q 404 924 419 919 q 229 782 307 943 q 160 497 165 647 q 215 208 156 346 q 228 182 221 196 q 246 151 235 168 q 268 119 257 133 q 294 93 279 106 q 322 74 308 81 q 353 69 336 68 q 385 81 369 69 q 481 286 456 125 q 476 368 488 333 q 424 367 465 403 q 353 267 390 336 q 326 231 340 242 q 289 221 313 219 q 246 237 258 222 q 238 274 233 251 q 251 316 243 297 q 272 354 260 335 q 454 489 354 483 z "},"H":{"ha":672,"x_min":-7,"x_max":644,"o":"m 542 913 q 590 938 553 942 q 639 908 626 935 q 643 888 643 900 q 641 867 643 876 q 635 843 639 857 q 629 824 631 829 q 607 703 617 765 q 581 458 590 592 q 579 444 581 457 q 577 424 578 431 q 578 408 576 417 q 588 397 579 406 q 599 386 597 389 q 592 331 613 360 q 583 322 588 325 q 577 317 579 319 q 572 304 575 314 q 570 288 571 297 q 570 268 569 279 q 571 253 571 257 q 567 144 567 157 q 574 88 567 132 q 579 13 582 44 q 554 -28 576 -18 q 458 67 478 -61 q 458 311 449 135 q 460 315 458 314 q 311 303 378 311 q 292 301 304 303 q 269 299 279 300 q 249 297 260 299 q 229 293 238 296 q 218 289 221 290 q 212 286 215 288 q 208 282 208 285 q 207 277 208 279 q 206 268 206 275 q 206 256 206 261 q 206 121 200 185 q 213 86 207 113 q 219 47 218 60 q 213 14 219 35 q 153 -6 190 -18 q 103 40 117 7 q 83 156 83 88 q 92 275 83 225 q 49 272 74 271 q 11 286 25 274 q -5 321 -4 300 q 10 356 -6 342 q 52 367 22 367 q 93 375 82 368 q 103 392 99 378 q 110 419 108 406 q 113 451 111 432 q 115 475 114 469 q 138 625 128 571 q 167 760 147 679 q 213 904 186 840 q 304 958 247 992 q 327 928 322 947 q 329 897 332 910 q 316 857 326 883 q 304 824 306 831 q 222 413 256 668 q 227 399 222 404 q 240 396 232 394 q 407 418 365 413 q 424 419 410 418 q 446 421 439 419 q 451 422 447 422 q 465 427 463 425 q 467 438 467 429 q 467 450 467 444 q 474 540 469 496 q 542 913 494 746 z "},"I":{"ha":367,"x_min":-31,"x_max":397,"o":"m 340 990 q 381 972 365 990 q 394 932 397 954 q 367 899 390 910 q 338 894 357 893 q 308 893 319 894 q 296 889 300 890 q 290 884 292 888 q 288 878 288 881 q 287 867 288 875 q 285 851 286 858 q 264 699 278 793 q 242 556 257 653 q 219 407 228 458 q 218 394 219 403 q 197 113 189 207 q 242 113 218 114 q 283 99 265 113 q 300 58 301 85 q 285 28 300 39 q 251 14 269 17 q 208 8 233 11 q 174 3 182 6 q 142 -6 163 1 q 104 -19 122 -14 q 66 -30 86 -25 q 28 -34 46 -35 q -3 -25 11 -33 q -30 17 -29 -11 q -4 60 -31 46 q 44 69 3 63 q 92 86 86 75 q 91 100 93 88 q 86 127 89 113 q 83 143 83 142 q 82 201 81 169 q 108 426 82 261 q 128 574 115 478 q 153 749 142 671 q 181 896 165 826 q 117 919 144 897 q 113 975 89 942 q 131 988 119 983 q 150 994 143 993 q 176 993 157 994 q 196 992 194 992 q 340 990 238 990 z "},"J":{"ha":542,"x_min":-19,"x_max":515,"o":"m 399 876 q 422 914 401 901 q 467 922 443 926 q 493 910 483 918 q 507 890 503 903 q 513 867 511 878 q 514 839 514 857 q 493 453 514 676 q 481 365 488 406 q 463 269 475 324 q 433 172 451 215 q 388 89 414 129 q 322 23 361 49 q 235 -10 283 -3 q 117 9 174 -18 q 24 89 60 36 q -18 203 -17 149 q 3 249 -19 233 q 56 253 26 265 q 92 221 76 243 q 117 176 108 199 q 144 130 126 153 q 185 99 161 107 q 238 98 213 88 q 281 133 263 108 q 310 183 299 158 q 331 232 322 207 q 373 430 361 326 q 390 675 385 533 q 399 876 394 817 z "},"K":{"ha":674,"x_min":29,"x_max":722,"o":"m 629 975 q 667 985 646 988 q 701 969 688 983 q 717 938 714 956 q 704 901 721 919 q 684 882 694 892 q 661 863 674 872 q 638 847 649 854 q 613 830 626 839 q 590 814 600 821 q 475 732 538 775 q 369 665 458 721 q 240 574 281 610 q 218 519 214 550 q 219 508 218 513 q 224 500 221 504 q 228 494 228 496 q 235 488 229 493 q 243 481 242 482 q 343 383 294 435 q 511 174 433 288 q 517 167 513 172 q 535 139 528 149 q 549 111 542 129 q 556 82 557 93 q 546 59 556 71 q 515 40 536 47 q 468 45 490 33 q 434 72 446 57 q 405 117 422 88 q 381 157 388 147 q 218 349 308 257 q 205 351 213 354 q 197 340 197 349 q 183 210 190 281 q 182 165 183 194 q 178 111 181 135 q 171 68 176 88 q 129 28 163 38 q 71 42 96 18 q 61 56 65 47 q 57 74 57 64 q 57 92 57 85 q 59 113 57 100 q 61 131 61 125 q 74 279 67 201 q 92 428 82 349 q 90 460 94 453 q 65 485 86 467 q 57 491 63 486 q 49 498 51 496 q 42 504 46 500 q 36 513 39 508 q 32 522 33 517 q 30 533 31 528 q 30 543 29 539 q 33 552 31 547 q 37 560 35 557 q 43 568 39 564 q 50 574 47 572 q 59 581 53 576 q 67 586 65 585 q 76 592 69 588 q 85 597 83 596 q 108 613 103 607 q 118 636 113 618 q 124 660 122 646 q 128 692 126 675 q 131 717 129 708 q 154 860 142 796 q 160 899 156 868 q 169 953 164 931 q 183 989 175 975 q 240 1012 201 1018 q 286 972 279 1006 q 288 942 290 963 q 282 906 285 921 q 274 871 279 892 q 268 839 269 850 q 250 731 263 804 q 257 715 249 721 q 274 715 265 710 q 629 975 436 824 z "},"L":{"ha":435,"x_min":-1,"x_max":407,"o":"m 350 114 q 392 87 379 113 q 390 38 406 61 q 344 12 376 15 q 290 13 313 8 q 150 14 218 15 q 113 11 143 14 q 62 10 82 8 q 27 22 42 13 q 6 51 13 32 q 2 98 0 71 q 8 147 4 125 q 19 197 13 169 q 28 235 26 225 q 81 503 47 353 q 142 769 94 571 q 172 901 161 851 q 175 913 174 904 q 178 926 176 922 q 181 937 179 929 q 186 948 183 944 q 194 956 189 951 q 204 964 199 961 q 260 956 238 978 q 278 900 282 933 q 267 833 274 869 q 253 767 260 796 q 239 699 247 739 q 225 633 231 660 q 189 478 214 581 q 148 292 164 375 q 125 133 132 208 q 128 122 124 126 q 139 118 132 118 q 350 114 247 121 z "},"M":{"ha":817,"x_min":38,"x_max":790,"o":"m 692 986 q 724 1001 704 999 q 760 994 744 1003 q 785 968 781 983 q 788 925 790 953 q 769 774 782 871 q 753 644 757 678 q 722 85 714 308 q 705 15 724 42 q 644 -3 686 -12 q 614 18 625 1 q 600 59 603 35 q 597 105 597 83 q 599 154 597 126 q 601 190 601 182 q 642 744 601 429 q 638 750 642 749 q 633 749 635 751 q 504 542 560 650 q 449 421 474 482 q 439 395 447 419 q 423 359 431 371 q 403 340 415 347 q 379 332 390 333 q 359 335 368 331 q 343 343 350 339 q 329 360 336 347 q 319 378 322 372 q 310 399 315 383 q 303 419 304 415 q 297 439 301 422 q 217 690 268 539 q 211 694 215 694 q 207 689 207 693 q 156 96 160 354 q 151 62 154 76 q 139 35 147 47 q 116 20 131 22 q 81 26 101 18 q 53 47 63 32 q 41 82 43 61 q 39 120 39 103 q 41 162 39 138 q 44 196 43 186 q 88 707 50 476 q 106 784 92 732 q 126 878 119 836 q 128 953 133 919 q 146 1005 124 988 q 201 1004 168 1022 q 219 990 211 1000 q 231 972 228 979 q 241 947 235 964 q 250 926 247 931 q 297 813 274 871 q 376 583 339 706 q 385 576 379 576 q 396 581 392 575 q 692 986 510 804 z "},"N":{"ha":579,"x_min":39,"x_max":547,"o":"m 436 999 q 477 1039 439 1035 q 533 1015 515 1043 q 544 985 543 1001 q 542 937 546 968 q 539 906 539 906 q 529 781 536 851 q 515 647 525 738 q 500 503 506 557 q 490 372 494 449 q 486 231 486 296 q 490 195 486 221 q 494 148 493 169 q 494 103 496 126 q 481 65 492 81 q 450 46 471 50 q 390 75 413 39 q 380 105 385 85 q 372 131 375 125 q 358 161 368 142 q 344 190 349 181 q 303 310 322 244 q 272 422 283 375 q 242 548 260 469 q 215 665 225 626 q 208 671 214 671 q 200 664 201 671 q 167 363 182 518 q 154 200 157 246 q 157 124 153 181 q 157 50 161 68 q 118 8 151 17 q 61 25 85 0 q 53 38 57 31 q 47 53 49 44 q 43 70 44 63 q 41 90 42 78 q 40 108 40 103 q 39 126 39 114 q 39 142 39 139 q 47 279 39 175 q 108 844 72 617 q 116 881 111 857 q 124 919 121 906 q 128 957 126 933 q 126 993 131 981 q 122 1031 121 1011 q 139 1063 124 1051 q 183 1072 163 1079 q 217 1047 203 1064 q 239 1007 232 1029 q 372 500 310 753 q 378 495 374 494 q 383 500 383 496 q 410 741 390 574 q 436 999 429 908 z "},"O":{"ha":536,"x_min":31,"x_max":499,"o":"m 392 938 q 465 822 439 890 q 495 674 492 754 q 494 531 499 593 q 479 389 490 468 q 460 280 471 328 q 427 176 449 232 q 367 78 406 119 q 279 18 329 38 q 196 5 232 1 q 133 33 160 8 q 87 88 106 57 q 57 161 68 119 q 40 240 46 203 q 35 314 35 278 q 140 828 32 583 q 167 883 156 861 q 198 933 179 906 q 241 979 217 961 q 294 1004 265 997 q 345 1005 317 1007 q 390 985 374 1003 q 392 938 407 967 m 379 547 q 290 872 389 813 q 181 563 221 775 q 161 228 143 363 q 222 114 176 124 q 265 131 243 110 q 297 172 286 151 q 318 215 307 192 q 379 547 372 342 z "},"P":{"ha":485,"x_min":25,"x_max":506,"o":"m 172 1039 q 308 1049 244 1068 q 416 985 371 1031 q 483 872 461 939 q 494 738 504 804 q 393 539 476 613 q 294 488 351 503 q 240 476 271 481 q 223 475 233 475 q 206 474 213 475 q 194 471 200 474 q 185 463 188 468 q 178 436 179 454 q 176 396 176 418 q 175 367 175 374 q 172 344 174 358 q 169 317 171 329 q 167 293 168 304 q 161 222 165 269 q 156 153 157 175 q 154 139 154 149 q 151 117 153 125 q 148 92 150 108 q 143 65 146 75 q 135 43 140 56 q 124 24 131 31 q 108 13 117 18 q 88 10 100 8 q 63 19 76 13 q 34 60 42 32 q 28 113 26 89 q 38 176 31 138 q 44 225 44 215 q 76 531 64 410 q 107 846 100 758 q 113 929 113 921 q 110 958 113 936 q 110 990 107 979 q 121 1018 113 1007 q 142 1035 129 1029 q 172 1039 156 1042 m 376 751 q 375 828 382 790 q 346 899 368 865 q 288 947 324 933 q 238 953 254 960 q 226 945 229 950 q 222 937 222 940 q 222 923 221 933 q 222 907 222 913 q 215 768 221 846 q 201 629 211 714 q 200 619 201 626 q 198 606 199 611 q 198 594 197 600 q 203 585 199 588 q 264 590 213 578 q 323 626 299 599 q 360 684 347 653 q 376 751 372 715 z "},"Q":{"ha":650,"x_min":0,"x_max":600,"o":"m 500 192 q 526 168 503 189 q 560 133 549 147 q 585 99 571 119 q 599 61 600 78 q 581 32 597 44 q 551 19 565 22 q 522 24 538 17 q 497 36 507 31 q 472 58 488 42 q 453 81 457 75 q 435 104 449 86 q 276 59 356 42 q 135 143 197 76 q 53 290 72 210 q 111 801 0 500 q 133 856 124 832 q 163 917 143 881 q 203 975 183 953 q 252 1013 224 997 q 311 1024 281 1028 q 333 1019 318 1022 q 356 1015 347 1017 q 400 1007 390 1013 q 418 991 408 1001 q 441 965 428 981 q 457 944 454 949 q 498 873 482 918 q 519 799 514 828 q 529 715 524 769 q 529 431 542 613 q 519 303 521 311 q 513 269 519 297 q 501 218 506 242 q 500 192 497 194 m 308 924 m 301 157 q 356 176 331 154 q 343 186 354 178 q 327 198 332 194 q 313 210 322 201 q 299 226 303 219 q 292 240 296 232 q 292 257 289 249 q 301 274 294 265 q 404 264 333 314 q 417 335 413 297 q 423 429 421 372 q 426 503 425 486 q 421 721 435 617 q 410 789 415 765 q 391 847 406 813 q 353 903 376 881 q 322 919 336 917 q 297 910 308 922 q 278 888 285 899 q 260 857 271 878 q 256 847 257 850 q 154 461 174 693 q 154 372 150 418 q 173 276 158 325 q 221 195 188 228 q 301 157 254 163 z "},"R":{"ha":615,"x_min":57,"x_max":569,"o":"m 307 494 q 383 408 317 483 q 483 289 450 332 q 499 269 486 285 q 520 242 511 254 q 541 213 529 231 q 558 181 553 196 q 567 152 564 167 q 563 126 569 138 q 539 107 556 114 q 504 101 522 96 q 474 115 486 107 q 449 142 463 124 q 428 175 436 160 q 408 209 419 190 q 390 238 397 228 q 299 350 360 278 q 219 446 239 422 q 210 449 215 450 q 203 440 204 447 q 188 68 197 371 q 166 7 188 29 q 107 0 144 -15 q 83 26 90 7 q 74 63 75 46 q 76 108 74 79 q 78 143 78 138 q 100 532 81 350 q 116 720 107 590 q 133 918 125 850 q 80 942 101 915 q 79 996 58 968 q 97 1009 85 1003 q 119 1019 108 1015 q 149 1024 131 1022 q 176 1028 167 1026 q 204 1030 186 1029 q 226 1031 222 1031 q 492 939 404 1044 q 543 810 536 883 q 519 672 550 736 q 313 515 467 560 q 305 506 307 513 q 307 494 303 500 m 425 806 q 361 910 418 876 q 338 921 351 915 q 310 931 325 926 q 280 936 294 935 q 254 933 265 938 q 246 931 249 932 q 242 928 243 929 q 240 925 240 928 q 238 920 239 922 q 238 913 238 918 q 238 904 238 908 q 233 864 235 886 q 229 775 232 832 q 219 614 225 682 q 221 608 219 611 q 225 604 222 606 q 231 604 228 603 q 250 608 235 606 q 271 613 265 611 q 290 617 276 614 q 310 624 304 621 q 328 631 317 626 q 347 640 340 635 q 363 651 354 644 q 378 664 371 657 q 425 806 435 721 z "},"S":{"ha":579,"x_min":29,"x_max":543,"o":"m 433 522 q 510 441 483 490 q 540 340 538 392 q 524 234 542 288 q 472 138 506 181 q 389 68 439 96 q 282 38 339 40 q 135 78 213 35 q 42 185 57 121 q 79 258 29 240 q 149 249 121 274 q 160 214 164 235 q 210 173 158 197 q 281 149 261 149 q 345 170 315 149 q 394 225 375 192 q 415 353 433 290 q 329 450 396 417 q 284 471 321 453 q 235 495 247 489 q 194 519 224 501 q 151 549 165 536 q 119 583 138 563 q 86 625 100 603 q 56 744 56 678 q 82 865 56 810 q 158 958 106 917 q 271 1019 210 999 q 397 1031 332 1039 q 507 983 461 1024 q 526 958 518 972 q 534 931 533 944 q 525 906 535 917 q 496 893 515 896 q 438 909 475 889 q 381 929 401 929 q 262 900 317 931 q 188 815 207 869 q 174 753 175 782 q 181 702 174 724 q 206 661 189 681 q 242 628 222 642 q 288 599 263 614 q 338 573 314 583 q 388 548 361 563 q 433 522 415 533 z "},"T":{"ha":519,"x_min":33,"x_max":583,"o":"m 519 1004 q 566 977 550 1004 q 563 925 582 950 q 552 916 558 919 q 540 910 546 913 q 526 908 535 908 q 513 907 518 907 q 498 908 507 907 q 485 908 489 908 q 375 908 418 908 q 368 900 368 908 q 365 742 369 826 q 351 556 360 657 q 339 397 343 456 q 336 319 339 372 q 331 226 333 267 q 326 149 328 186 q 326 131 326 142 q 326 110 326 119 q 326 90 326 101 q 324 69 325 78 q 318 52 322 61 q 307 40 314 43 q 290 35 300 38 q 265 40 281 33 q 238 60 249 46 q 225 90 228 74 q 221 124 222 106 q 221 158 219 143 q 225 283 222 201 q 229 394 228 364 q 243 676 232 493 q 256 897 254 858 q 246 907 256 907 q 150 903 210 901 q 61 928 90 906 q 39 959 43 939 q 47 996 35 979 q 107 1008 63 1014 q 174 1004 151 1004 q 240 1008 196 1004 q 306 1011 283 1011 q 338 1010 319 1011 q 374 1006 356 1008 q 407 1004 393 1004 q 467 1004 428 1004 q 519 1004 507 1004 z "},"U":{"ha":654,"x_min":49,"x_max":588,"o":"m 556 501 q 565 276 556 392 q 575 175 569 226 q 580 146 575 168 q 585 113 585 124 q 583 82 586 101 q 536 45 574 50 q 481 67 499 40 q 462 116 468 83 q 454 166 456 149 q 451 228 453 183 q 447 234 451 233 q 440 229 442 235 q 215 21 358 -21 q 53 339 61 65 q 83 767 49 478 q 100 889 90 826 q 101 918 100 896 q 106 956 103 940 q 115 983 110 972 q 152 1009 128 1004 q 196 1001 176 1014 q 222 970 215 992 q 226 931 228 949 q 219 883 225 914 q 213 844 214 851 q 189 635 196 708 q 182 576 188 629 q 176 508 176 522 q 172 446 175 493 q 169 376 168 399 q 172 315 171 353 q 181 247 174 276 q 197 189 188 217 q 218 145 206 163 q 248 124 231 128 q 282 151 265 121 q 356 331 322 224 q 383 440 371 381 q 403 546 396 499 q 420 658 410 593 q 439 767 431 722 q 461 885 456 849 q 463 899 461 889 q 465 915 464 910 q 469 928 465 921 q 478 942 472 936 q 523 953 496 958 q 564 927 550 947 q 578 873 578 907 q 572 788 579 839 q 564 729 564 738 q 556 501 554 585 z "},"V":{"ha":582,"x_min":49,"x_max":615,"o":"m 500 978 q 528 1012 506 1001 q 575 1015 551 1022 q 608 988 601 1008 q 607 943 615 968 q 583 847 597 899 q 558 760 569 794 q 527 663 547 725 q 500 574 507 600 q 415 249 479 507 q 408 214 414 240 q 399 167 403 188 q 385 121 394 147 q 365 79 376 94 q 337 56 354 64 q 299 54 319 47 q 276 66 288 58 q 256 86 265 74 q 240 110 247 99 q 227 141 233 122 q 217 172 221 160 q 208 206 213 185 q 201 237 203 228 q 195 267 199 246 q 190 290 192 288 q 165 442 183 332 q 133 613 146 553 q 92 781 115 692 q 72 843 92 783 q 50 932 51 903 q 72 976 49 967 q 121 971 94 985 q 158 933 147 957 q 219 749 196 846 q 266 510 243 651 q 299 318 289 369 q 308 310 300 310 q 318 318 317 310 q 400 625 372 539 q 500 978 479 872 z "},"W":{"ha":874,"x_min":69,"x_max":897,"o":"m 785 936 q 822 973 790 964 q 876 967 853 982 q 891 948 886 960 q 896 924 896 936 q 893 897 896 913 q 887 869 890 882 q 878 842 883 857 q 872 821 874 828 q 803 599 853 744 q 736 382 754 453 q 714 284 729 353 q 688 179 699 215 q 684 165 688 179 q 680 149 681 151 q 675 133 679 146 q 669 117 671 121 q 663 101 668 113 q 656 85 658 90 q 647 72 653 81 q 637 59 642 64 q 626 49 632 54 q 613 40 619 44 q 581 31 596 32 q 552 35 565 29 q 527 49 539 40 q 504 74 515 57 q 484 104 493 90 q 465 141 475 118 q 450 178 456 164 q 437 217 444 193 q 426 253 429 242 q 415 285 422 265 q 414 290 415 289 q 405 298 413 297 q 394 293 397 299 q 161 -7 243 -8 q 118 21 136 -6 q 105 46 111 32 q 95 72 99 60 q 88 103 92 85 q 83 133 85 121 q 79 165 81 146 q 77 195 78 185 q 76 226 76 206 q 74 253 75 246 q 74 497 71 319 q 82 775 78 661 q 90 913 86 847 q 90 933 90 918 q 91 957 90 949 q 96 977 92 965 q 107 996 100 989 q 159 1001 129 1014 q 196 961 189 989 q 201 921 201 935 q 199 876 201 907 q 196 835 196 846 q 193 706 194 788 q 188 583 192 667 q 183 448 185 499 q 184 326 182 397 q 193 196 186 254 q 201 188 194 189 q 211 192 208 186 q 310 371 232 226 q 331 418 313 375 q 367 485 349 461 q 407 514 385 508 q 450 509 428 519 q 478 478 472 499 q 480 460 481 471 q 481 442 479 449 q 485 424 482 433 q 494 402 489 414 q 501 383 499 390 q 563 218 532 296 q 574 210 565 210 q 583 219 582 211 q 621 361 589 236 q 674 550 653 486 q 785 936 743 751 z "},"X":{"ha":543,"x_min":-22,"x_max":515,"o":"m 419 992 q 472 1003 438 1015 q 513 964 507 992 q 511 945 514 954 q 499 922 508 936 q 489 906 490 908 q 443 804 467 864 q 412 713 436 783 q 372 606 388 643 q 362 585 368 597 q 353 565 356 572 q 347 547 350 557 q 345 527 344 538 q 350 506 346 517 q 393 403 367 464 q 481 197 463 242 q 492 165 489 178 q 494 138 494 153 q 483 113 494 122 q 450 101 472 104 q 428 101 439 100 q 410 108 418 103 q 397 119 403 114 q 385 135 390 125 q 376 152 379 146 q 367 172 372 158 q 358 189 361 185 q 283 365 324 265 q 268 376 279 375 q 251 367 257 376 q 132 143 217 300 q 119 119 129 139 q 103 90 108 99 q 87 65 99 81 q 65 45 75 50 q 39 40 54 40 q 8 47 24 39 q -15 74 -10 58 q -15 108 -21 89 q 0 143 -8 128 q 22 178 8 158 q 39 206 35 197 q 178 464 156 421 q 190 483 182 469 q 204 508 199 496 q 213 528 210 519 q 213 545 215 533 q 208 562 210 557 q 202 578 207 567 q 196 596 197 590 q 147 732 169 667 q 104 869 124 803 q 95 893 101 875 q 85 922 89 911 q 79 951 82 933 q 83 975 76 969 q 118 1001 96 1001 q 160 985 140 1001 q 186 950 179 969 q 213 876 199 915 q 244 790 228 836 q 271 715 261 743 q 282 707 274 707 q 293 715 290 707 q 303 744 296 722 q 314 773 311 765 q 324 801 317 781 q 336 830 332 821 q 348 857 340 839 q 360 886 356 875 q 373 913 365 897 q 388 941 381 929 q 403 966 394 953 q 419 992 411 979 z "},"Y":{"ha":560,"x_min":39,"x_max":600,"o":"m 497 989 q 533 1016 507 1011 q 578 1007 558 1021 q 589 997 585 1003 q 596 988 593 992 q 599 976 599 983 q 600 964 600 968 q 598 951 600 960 q 594 940 596 943 q 590 926 593 936 q 585 914 586 917 q 525 749 569 869 q 458 561 481 628 q 361 257 417 443 q 311 89 344 197 q 307 70 310 83 q 301 48 304 57 q 294 29 299 39 q 283 12 290 19 q 268 1 276 4 q 231 -1 250 -6 q 200 18 213 4 q 190 33 193 25 q 188 53 186 42 q 189 69 189 65 q 194 89 189 72 q 200 107 199 106 q 294 429 251 293 q 303 452 296 435 q 316 485 311 469 q 319 510 321 500 q 311 527 318 517 q 294 549 304 538 q 281 565 283 561 q 254 608 268 585 q 225 654 240 631 q 199 696 210 678 q 106 839 175 733 q 87 863 100 846 q 65 892 74 879 q 47 921 56 904 q 39 950 39 938 q 57 985 40 972 q 96 996 74 999 q 122 983 108 994 q 142 962 135 972 q 162 933 150 951 q 178 910 174 914 q 335 681 265 785 q 358 669 343 667 q 379 686 374 671 q 497 989 436 849 z "},"Z":{"ha":474,"x_min":-15,"x_max":468,"o":"m 260 350 q 153 153 219 268 q 153 132 146 143 q 172 122 160 121 q 224 128 200 126 q 280 132 247 131 q 336 130 313 133 q 381 119 360 126 q 409 97 401 113 q 408 60 417 82 q 395 39 404 47 q 372 28 386 31 q 348 25 358 25 q 320 26 338 25 q 297 26 303 26 q 78 8 204 24 q -14 60 -14 -4 q -3 108 -14 83 q 33 169 8 133 q 61 211 57 204 q 221 539 143 351 q 247 603 225 550 q 278 678 269 656 q 303 742 288 700 q 329 818 319 783 q 346 886 339 853 q 346 938 356 932 q 333 940 339 940 q 316 937 328 939 q 303 935 304 935 q 149 904 231 929 q 94 900 124 893 q 60 939 65 907 q 114 997 51 978 q 129 1001 119 999 l 139 1006 q 438 1000 369 1075 q 461 955 454 981 q 467 906 468 929 q 458 850 467 883 q 442 797 450 817 q 422 743 435 776 q 406 699 408 710 q 260 350 332 500 z "},"[":{"ha":290,"x_min":67,"x_max":517,"o":"m 482 1140 q 514 1092 517 1128 q 478 1047 511 1057 q 450 1044 469 1043 q 419 1047 431 1046 q 388 1053 407 1049 q 360 1058 368 1057 q 263 1069 310 1065 q 251 1067 257 1069 q 241 1058 244 1064 q 236 1046 238 1053 q 215 794 233 1003 q 193 475 197 586 q 188 -100 179 194 q 192 -111 188 -107 q 203 -115 197 -115 q 265 -115 228 -112 q 335 -123 301 -118 q 385 -147 368 -128 q 385 -196 401 -167 q 370 -214 379 -207 q 347 -222 361 -221 q 326 -224 333 -224 q 299 -223 318 -225 q 278 -221 281 -221 q 204 -222 256 -219 q 132 -222 153 -225 q 88 -201 100 -218 q 72 -150 75 -183 q 69 26 71 -122 q 72 346 67 176 q 108 953 82 711 q 119 1028 113 979 q 129 1099 126 1078 q 147 1156 133 1139 q 199 1172 160 1172 q 482 1140 367 1176 z "},"\\":{"ha":569,"x_min":67,"x_max":503,"o":"m 464 99 q 476 73 467 90 q 490 44 485 56 q 499 15 494 32 q 496 -11 503 -3 q 460 -40 481 -39 q 422 -22 440 -40 q 391 16 404 -3 q 371 51 378 35 q 335 143 351 93 q 299 254 318 193 q 268 347 281 315 q 163 644 225 475 q 103 801 147 682 q 89 832 101 806 q 72 877 76 858 q 72 911 67 896 q 95 935 78 928 q 131 939 113 943 q 156 924 144 936 q 171 905 167 913 q 183 876 175 897 q 193 851 192 854 q 414 249 296 608 q 435 184 417 240 q 464 99 453 128 z "},"]":{"ha":283,"x_min":-161,"x_max":239,"o":"m 190 1150 q 222 1135 210 1147 q 236 1101 233 1122 q 238 1063 239 1081 q 234 1020 238 1046 q 231 988 231 994 q 217 753 224 876 q 190 297 208 596 q 165 -128 172 8 q 141 -203 161 -183 q 63 -236 121 -224 q -118 -244 -68 -264 q -150 -216 -140 -236 q -150 -174 -160 -196 q -138 -154 -146 -161 q -119 -144 -131 -147 q -99 -141 -107 -142 q -75 -141 -92 -140 q -53 -142 -58 -142 q -40 -142 -50 -142 q -26 -143 -31 -143 q -11 -142 -21 -143 q 5 -141 -1 -142 q 19 -139 11 -140 q 32 -135 26 -137 q 42 -130 38 -133 q 49 -122 47 -126 q 55 -95 54 -112 q 55 -56 56 -78 q 54 -26 54 -33 q 65 175 58 53 q 114 1014 96 767 q 115 1024 114 1017 q 115 1035 115 1032 q 97 1058 128 1065 q 61 1061 96 1060 q 14 1059 46 1061 q -35 1058 -18 1057 q -93 1107 -90 1063 q -85 1133 -93 1122 q -64 1151 -78 1144 q -33 1161 -50 1157 q 6 1166 -17 1165 q 49 1166 29 1167 q 92 1163 68 1165 q 132 1158 117 1160 q 167 1153 147 1157 q 190 1150 186 1150 z "},"^":{"ha":336,"x_min":51,"x_max":321,"o":"m 279 763 q 294 719 282 753 q 313 664 307 686 q 315 617 319 642 q 286 583 310 592 q 264 578 275 578 q 244 581 253 578 q 228 590 236 583 q 215 604 221 597 q 203 622 208 611 q 194 642 197 633 q 185 663 190 650 q 178 683 181 676 q 174 700 176 689 q 168 685 172 697 q 162 668 164 672 q 155 652 160 664 q 147 636 150 640 q 138 624 143 632 q 126 614 132 615 q 113 610 119 613 q 97 611 106 608 q 78 621 88 614 q 59 642 65 629 q 53 666 53 654 q 57 694 53 678 q 66 721 61 710 q 78 749 71 732 q 89 772 86 765 q 99 799 90 778 q 112 833 107 821 q 127 865 117 846 q 147 894 138 883 q 171 912 157 904 q 201 918 185 919 q 231 908 218 917 q 250 888 243 900 q 262 858 257 875 q 269 825 267 840 q 274 791 271 810 q 279 763 276 772 z "},"_":{"ha":592,"x_min":-29,"x_max":529,"o":"m 469 76 q 510 56 493 75 q 522 14 528 38 q 513 -8 519 0 q 492 -18 506 -15 q 469 -22 478 -21 q 442 -21 461 -22 q 421 -19 424 -19 q 217 -14 244 -15 q 153 -13 182 -12 q 88 -13 124 -14 q 25 -7 51 -12 q -14 12 0 -3 q -24 50 -28 26 q -18 65 -22 58 q -10 75 -14 71 q 1 82 -7 79 q 13 86 8 85 q 28 88 18 88 q 42 88 38 88 q 56 88 46 88 q 69 88 67 88 q 469 76 115 86 z "},"`":{"ha":251,"x_min":64,"x_max":251,"o":"m 228 715 q 194 671 250 703 q 185 667 186 667 q 122 700 147 661 q 82 792 99 736 q 83 869 65 847 q 135 890 104 893 q 182 861 167 886 q 215 764 194 842 q 217 757 217 763 q 219 744 218 751 q 222 731 221 738 q 225 721 224 725 q 228 715 226 717 z "},"a":{"ha":588,"x_min":21,"x_max":538,"o":"m 522 67 q 531 46 526 58 l 531 47 q 529 63 529 56 q 519 11 536 33 q 472 -11 501 -11 q 396 72 418 -10 q 389 188 383 122 q 278 67 332 110 q 163 20 222 24 q 63 57 103 17 q 22 171 22 97 q 74 360 22 265 q 207 490 125 454 q 335 506 256 515 q 451 453 414 496 q 480 458 465 460 q 506 451 494 457 q 522 438 517 446 q 531 417 528 429 q 534 393 533 404 q 533 366 535 382 q 529 340 531 350 q 524 315 528 331 q 519 294 521 299 q 508 215 511 246 q 508 140 504 183 q 526 63 511 97 l 525 64 l 522 67 m 342 311 q 375 368 343 314 q 372 369 374 368 l 369 372 q 221 369 285 432 q 160 240 188 339 q 165 126 129 131 q 207 144 181 125 q 237 172 222 157 q 268 208 251 186 q 292 240 285 229 q 319 278 300 250 q 342 311 339 307 z "},"b":{"ha":503,"x_min":33,"x_max":479,"o":"m 289 418 q 397 398 351 424 q 460 330 442 372 q 471 234 479 288 q 426 135 463 181 q 293 39 375 69 q 190 22 250 24 q 170 15 178 22 q 164 -1 163 7 q 158 -49 165 -33 q 110 -86 140 -87 q 65 -62 86 -85 q 40 -11 44 -39 q 35 63 33 14 q 41 140 38 113 q 51 216 44 168 q 60 288 57 264 q 101 608 72 419 q 106 643 101 614 q 113 681 111 672 q 118 715 114 689 q 126 752 122 740 q 135 785 129 764 q 147 821 140 807 q 161 852 153 835 q 179 883 169 869 q 217 903 192 901 q 258 892 243 906 q 281 860 281 876 q 272 821 281 843 q 208 522 226 654 q 194 410 201 468 q 198 399 193 403 q 210 399 203 396 q 289 418 249 414 m 181 138 q 263 149 219 135 q 339 197 307 163 q 364 276 371 231 q 315 321 356 319 q 234 295 275 322 q 182 239 193 268 q 169 188 171 206 q 165 140 167 168 q 181 138 178 139 z "},"c":{"ha":472,"x_min":21,"x_max":442,"o":"m 358 153 q 422 142 403 161 q 429 93 440 122 q 383 44 418 64 q 288 15 336 19 q 197 25 239 10 q 119 69 156 40 q 61 138 82 97 q 31 226 40 179 q 35 324 21 272 q 72 410 47 369 q 136 478 97 450 q 221 515 175 507 q 340 502 282 526 q 415 422 397 478 q 399 377 425 394 q 347 365 374 360 q 306 390 331 368 q 263 413 282 411 q 203 394 229 414 q 165 342 176 374 q 150 277 154 311 q 156 217 146 243 q 244 126 178 144 q 311 135 275 118 q 358 153 347 151 z "},"d":{"ha":576,"x_min":21,"x_max":593,"o":"m 561 997 q 585 968 579 989 q 590 932 592 947 q 583 887 589 917 q 575 851 576 857 q 517 390 531 546 q 503 150 504 263 q 507 97 503 140 q 507 24 511 53 q 486 -23 503 -6 q 442 -42 469 -40 q 397 -29 415 -44 q 379 6 385 -18 q 374 49 374 29 q 377 99 375 69 q 379 138 379 129 q 379 151 379 143 q 376 156 379 154 q 371 154 374 157 q 153 29 283 14 q 57 82 90 38 q 23 183 24 126 q 40 299 22 240 q 88 397 57 357 q 208 479 135 456 q 351 485 281 503 q 365 494 363 482 q 375 539 371 522 q 426 761 415 713 q 436 824 431 779 q 450 903 442 868 q 471 961 458 939 q 510 999 485 986 q 561 997 536 1011 m 233 158 q 339 367 300 207 q 194 343 251 397 q 156 233 163 313 q 186 142 147 149 q 233 158 204 138 z "},"e":{"ha":438,"x_min":25,"x_max":419,"o":"m 265 99 q 291 101 271 99 q 327 101 311 104 q 354 86 343 99 q 366 44 374 64 q 340 10 358 24 q 299 -7 321 -3 q 178 -4 232 -22 q 92 53 124 14 q 43 147 60 93 q 30 258 26 201 q 57 368 33 314 q 124 460 81 422 q 199 504 154 486 q 288 527 243 522 q 369 508 333 532 q 413 431 404 483 q 400 348 419 390 q 347 278 381 306 q 292 247 325 257 q 226 227 260 236 q 169 204 192 218 q 146 196 158 197 q 167 149 153 169 q 207 115 182 128 q 265 99 232 101 m 158 322 q 153 307 156 315 q 180 313 163 310 q 208 319 197 317 q 226 326 219 322 q 289 374 260 340 q 286 428 318 408 q 216 399 260 443 q 158 322 172 354 z "},"f":{"ha":363,"x_min":11,"x_max":522,"o":"m 503 858 q 517 815 522 838 q 486 783 511 793 q 433 790 465 776 q 383 797 401 803 q 340 769 360 792 q 309 724 321 747 q 286 663 297 700 q 270 604 275 625 q 258 550 265 583 q 257 538 257 542 q 240 417 246 483 q 247 407 239 408 q 278 406 261 407 q 342 380 315 403 q 340 324 368 357 q 296 300 328 307 q 240 293 274 294 q 233 285 233 292 q 226 58 229 128 q 226 38 226 51 q 226 12 226 24 q 226 -16 226 0 q 223 -43 225 -32 q 216 -67 221 -54 q 203 -83 211 -79 q 182 -92 194 -87 q 153 -87 169 -96 q 123 -67 135 -83 q 106 -33 111 -50 q 101 13 101 -15 q 102 58 101 42 q 107 104 103 75 q 108 117 107 113 q 111 206 108 121 q 114 292 114 290 q 108 299 115 299 q 78 301 89 301 q 28 331 43 301 q 36 388 13 361 q 69 403 44 397 q 113 408 88 407 q 121 418 121 410 q 125 451 122 435 q 147 593 132 529 q 167 659 154 624 q 201 735 181 694 q 244 810 221 775 q 299 870 268 844 q 360 907 329 896 q 429 906 392 918 q 503 858 467 894 z "},"g":{"ha":453,"x_min":-53,"x_max":411,"o":"m 401 431 q 392 135 411 294 q 381 61 386 94 q 364 -17 375 28 q 339 -97 353 -62 q 303 -168 325 -132 q 254 -226 281 -204 q 190 -261 228 -249 q 108 -269 153 -274 q 13 -233 63 -265 q 13 -160 -51 -192 q 15 -158 14 -158 q 67 -158 26 -147 q 119 -167 107 -168 q 204 -110 171 -162 q 257 40 240 -54 q 254 49 258 46 q 246 50 250 51 q 151 42 199 32 q 70 87 103 53 q 24 172 38 121 q 33 285 11 224 q 135 408 56 349 q 282 463 214 467 q 297 472 293 461 q 299 478 299 475 q 329 507 307 500 q 371 504 351 514 q 388 493 382 499 q 397 479 394 488 q 400 466 399 471 q 401 448 401 461 q 401 431 401 435 m 278 214 q 278 282 278 238 q 279 349 279 326 q 263 356 271 354 q 175 311 214 367 q 138 207 136 256 q 183 142 139 144 q 223 149 203 140 q 258 175 243 157 q 278 214 274 193 z "},"h":{"ha":500,"x_min":47,"x_max":453,"o":"m 432 35 q 433 28 433 29 q 404 -24 439 -7 q 343 -21 369 -40 q 319 9 328 -11 q 310 58 311 29 q 310 109 310 88 q 315 163 311 131 q 321 203 319 194 q 319 357 333 347 q 301 353 313 363 q 276 324 289 344 q 257 293 264 304 q 243 269 250 282 q 242 267 242 267 q 222 219 229 244 q 206 162 214 193 q 193 113 199 131 q 147 42 178 67 q 86 32 115 17 q 51 104 57 47 q 48 182 49 153 q 51 260 47 211 q 58 339 56 310 q 67 417 61 368 q 76 493 74 465 q 81 551 78 507 q 87 615 85 594 q 95 674 89 635 q 108 738 101 713 q 124 794 114 763 q 147 850 135 825 q 181 881 161 875 q 215 876 200 886 q 241 844 231 865 q 249 801 251 824 q 225 680 244 760 q 200 563 206 600 q 182 396 190 475 q 187 388 182 390 q 194 390 192 386 q 339 457 265 467 q 396 433 372 451 q 431 383 419 414 q 447 320 442 353 q 451 244 453 288 q 446 168 449 200 q 438 94 443 136 q 432 35 433 53 z "},"i":{"ha":222,"x_min":35,"x_max":188,"o":"m 154 438 q 174 407 171 424 q 169 360 176 390 q 163 324 163 331 q 159 244 158 294 q 160 165 160 194 q 160 122 160 163 q 156 56 160 82 q 143 17 153 31 q 108 -4 131 0 q 68 3 86 -8 q 40 40 44 15 q 40 92 36 64 q 41 173 40 128 q 42 258 42 218 q 51 342 43 299 q 72 419 58 386 q 108 448 82 443 q 154 438 135 453 m 131 604 q 87 628 99 604 q 88 676 75 651 q 132 700 101 700 q 176 675 164 699 q 174 628 188 651 q 131 604 161 604 z "},"j":{"ha":213,"x_min":-260,"x_max":178,"o":"m 58 401 q 86 440 63 435 q 134 428 110 446 q 163 386 158 411 q 160 292 168 358 q 153 221 153 226 q 146 56 147 88 q 140 -16 143 14 q 130 -100 138 -46 q 112 -193 122 -154 q 83 -278 101 -232 q 40 -353 64 -325 q -19 -398 17 -381 q -97 -410 -56 -415 q -189 -365 -137 -406 q -204 -283 -260 -311 q -189 -276 -197 -279 q -141 -277 -164 -268 q -105 -297 -118 -286 q -74 -300 -92 -308 q -36 -254 -57 -292 q 26 -59 8 -168 q 47 196 43 50 q 58 401 51 342 m 126 601 q 79 623 97 601 q 68 668 61 644 q 107 696 75 692 q 163 663 146 700 q 151 608 178 625 q 126 601 142 601 z "},"k":{"ha":468,"x_min":22,"x_max":425,"o":"m 419 85 q 421 76 419 81 q 423 70 422 72 q 424 65 424 68 q 424 60 424 63 q 422 53 424 57 q 419 44 421 49 q 394 20 411 28 q 357 14 376 13 q 315 27 338 15 q 266 58 293 39 q 229 83 239 78 q 211 93 219 89 q 203 93 207 96 q 199 86 199 90 q 174 -39 200 -12 q 121 -55 143 -68 q 85 -14 99 -42 q 71 39 72 14 q 71 167 69 97 q 24 220 24 193 q 76 278 25 247 q 82 364 79 313 q 85 399 83 375 q 95 526 90 481 q 113 643 100 572 q 149 770 125 714 q 207 874 172 826 q 252 897 229 900 q 291 871 275 894 q 301 822 307 847 q 273 751 296 799 q 244 681 250 704 q 215 531 225 608 q 200 374 206 461 q 205 365 200 368 q 214 365 210 363 q 335 453 303 433 q 383 456 354 465 q 418 424 411 446 q 420 405 424 414 q 415 390 417 396 q 404 377 413 385 q 390 366 396 369 q 376 356 385 363 q 361 346 367 350 q 270 278 333 324 q 199 225 207 232 q 197 221 196 224 q 199 218 197 218 q 401 104 294 171 l 403 103 q 419 85 418 89 z "},"l":{"ha":239,"x_min":43,"x_max":232,"o":"m 136 839 q 178 862 157 865 q 215 837 199 858 q 231 793 232 815 q 213 675 231 754 q 194 561 196 596 q 188 433 193 543 q 178 264 183 322 q 170 192 175 240 q 163 119 165 144 q 162 92 163 111 q 161 58 161 74 q 157 27 161 43 q 146 3 153 11 q 97 -15 118 -24 q 61 18 75 -7 q 46 69 47 43 q 57 221 44 121 q 71 335 69 321 q 73 458 72 388 q 74 594 74 529 q 90 726 75 658 q 136 839 106 794 z "},"m":{"ha":767,"x_min":29,"x_max":717,"o":"m 701 319 q 707 270 704 294 q 713 199 710 246 q 713 115 717 151 q 703 42 710 78 q 676 -8 696 7 q 625 -15 656 -24 q 598 2 608 -10 q 585 31 588 14 q 584 64 583 49 q 587 101 585 79 q 589 132 589 122 q 578 349 594 261 q 574 354 578 353 q 568 353 571 356 q 524 288 544 329 q 496 217 504 246 q 475 142 488 189 q 468 99 472 131 q 459 48 464 68 q 440 10 454 28 q 400 -7 425 -7 q 345 33 363 -7 q 328 128 328 72 q 331 240 328 185 q 333 335 335 296 q 318 375 332 375 q 229 256 285 374 q 178 72 199 189 q 174 51 176 67 q 169 28 171 35 q 164 10 168 22 q 154 -8 160 -3 q 139 -19 149 -14 q 117 -26 129 -25 q 49 31 63 -35 q 39 242 31 132 q 78 449 47 351 q 107 500 89 485 q 158 503 125 515 q 192 467 188 492 q 188 418 196 443 q 190 411 186 414 q 199 413 194 408 q 285 465 238 454 q 372 453 332 476 q 429 372 413 429 q 438 365 432 367 q 449 369 444 364 q 593 469 511 471 q 630 463 614 469 q 657 444 646 457 q 676 420 668 432 q 688 388 683 408 q 695 355 693 368 q 701 319 697 342 z "},"n":{"ha":503,"x_min":35,"x_max":457,"o":"m 410 460 q 437 433 426 450 q 451 401 447 417 q 456 361 456 385 q 456 324 457 338 q 451 286 454 310 q 443 163 447 243 q 436 47 439 82 q 419 -1 433 21 q 384 -27 406 -22 q 336 -7 363 -32 q 326 11 331 0 q 320 35 322 22 q 317 65 318 47 q 317 95 317 82 q 318 128 317 108 q 321 158 319 147 q 324 185 322 168 q 325 204 325 201 q 340 363 338 336 q 338 367 342 365 q 332 368 335 369 q 267 292 300 346 q 217 197 233 238 q 168 32 188 132 q 165 16 167 28 q 162 -1 163 4 q 158 -16 161 -6 q 152 -31 156 -26 q 144 -42 149 -36 q 132 -53 139 -49 q 115 -60 125 -57 q 84 -64 97 -64 q 62 -53 71 -64 q 47 -32 53 -43 q 40 -3 42 -21 q 37 32 38 15 q 37 69 36 49 q 39 103 38 89 q 42 133 40 118 q 43 157 43 149 q 43 215 43 163 q 45 292 43 267 q 52 361 47 318 q 70 433 57 404 q 103 482 83 463 q 169 496 132 511 q 204 439 206 481 q 185 379 203 426 q 188 372 183 374 q 194 374 192 369 q 222 403 207 389 q 262 434 242 419 q 309 461 282 449 q 360 473 336 474 q 410 460 383 472 z "},"o":{"ha":453,"x_min":14,"x_max":471,"o":"m 311 483 q 382 101 471 265 q 306 14 353 49 q 203 -26 258 -21 q 94 8 147 -32 q 30 107 44 47 q 26 223 15 167 q 65 336 38 279 q 116 415 89 383 q 185 468 143 446 q 208 483 192 472 q 235 498 225 493 q 260 506 244 503 q 288 504 275 510 q 311 483 300 499 m 274 146 q 292 265 304 200 q 246 368 275 350 q 216 363 232 378 q 187 323 200 349 q 164 274 174 297 q 151 238 154 251 q 165 101 128 149 q 196 81 179 83 q 227 90 213 79 q 253 115 242 101 q 274 146 264 129 z "},"p":{"ha":503,"x_min":8,"x_max":482,"o":"m 217 418 q 283 437 249 432 q 349 437 318 442 q 408 418 381 432 q 452 381 435 404 q 475 326 469 358 q 469 251 481 293 q 351 89 443 153 q 163 47 260 25 q 150 44 156 49 q 143 33 144 40 q 131 -185 132 -139 q 136 -237 131 -194 q 138 -307 142 -279 q 114 -347 133 -335 q 15 -250 31 -407 q 17 -51 10 -187 q 34 164 25 85 q 67 378 43 243 q 68 385 67 381 q 73 410 71 400 q 79 436 75 419 q 88 463 83 453 q 101 485 93 474 q 119 503 108 497 q 143 510 129 510 q 187 499 172 513 q 200 463 201 485 q 194 419 199 442 q 197 413 193 415 q 204 411 200 410 l 217 418 m 321 207 q 349 253 336 226 q 360 308 361 281 q 332 344 358 336 q 272 334 308 353 q 210 293 236 315 q 165 233 188 274 q 156 168 142 192 q 208 146 174 140 q 274 170 242 151 q 321 207 306 189 z "},"q":{"ha":496,"x_min":8,"x_max":471,"o":"m 369 493 q 436 506 401 524 q 469 449 471 489 q 449 335 468 410 q 426 232 429 260 q 408 85 414 150 q 401 -18 403 19 q 394 -167 399 -56 q 390 -299 390 -264 q 394 -325 390 -304 q 397 -360 397 -346 q 389 -385 396 -375 q 330 -399 363 -412 q 285 -354 297 -385 q 272 -308 275 -331 q 268 -272 268 -286 q 270 -231 268 -258 q 272 -185 272 -203 q 279 -88 274 -142 q 286 -1 285 -35 q 279 11 286 7 q 265 11 272 15 q 178 -24 225 -19 q 88 -1 132 -28 q 21 193 8 51 q 51 299 26 247 q 115 386 76 350 q 205 435 154 422 q 313 428 256 449 q 324 426 318 425 q 334 428 329 426 q 342 435 339 431 q 347 444 346 439 q 369 493 358 475 m 226 131 q 232 139 228 132 q 306 307 332 275 q 235 324 278 333 q 172 288 192 315 q 146 164 143 249 q 181 92 149 89 q 226 131 200 94 z "},"r":{"ha":436,"x_min":43,"x_max":446,"o":"m 394 503 q 435 483 424 503 q 436 440 446 464 q 406 407 426 417 q 360 400 392 401 q 313 390 328 399 q 243 301 279 371 q 212 222 222 264 q 192 127 201 181 q 176 44 183 74 q 140 -11 168 8 q 76 -11 111 -31 q 49 42 54 4 q 47 141 43 81 q 51 207 51 201 q 72 464 47 372 q 186 563 114 613 q 200 551 194 557 q 206 535 206 544 q 208 518 207 525 q 206 499 208 511 q 201 481 203 486 q 194 460 199 475 q 188 442 189 446 q 191 433 186 436 q 199 435 196 431 q 394 503 265 504 z "},"s":{"ha":440,"x_min":-26,"x_max":436,"o":"m 369 543 q 418 460 403 518 q 388 383 436 389 q 363 386 376 383 q 333 404 342 390 q 317 436 324 418 q 299 463 311 454 q 251 463 265 485 q 240 406 238 442 q 268 327 244 369 q 316 253 292 285 q 355 179 340 222 q 360 94 369 136 q 316 20 350 47 q 239 -12 282 -7 q 151 -10 196 -18 q 68 17 106 -3 q 1 115 -25 65 q 31 140 11 136 q 66 137 50 143 q 106 119 82 131 q 138 106 129 108 q 243 125 236 75 q 237 158 246 139 q 208 206 228 178 q 188 235 188 235 q 154 525 68 421 q 258 574 192 571 q 369 543 325 578 z "},"t":{"ha":514,"x_min":-3,"x_max":497,"o":"m 468 35 q 435 -47 496 -8 q 340 -67 389 -75 q 251 -25 290 -60 q 190 63 214 10 q 158 167 167 115 q 149 287 149 218 q 153 400 150 356 q 165 504 157 444 q 68 533 119 507 q 63 607 -3 571 q 108 615 81 617 q 153 615 136 614 q 161 618 156 617 q 181 624 178 621 q 186 640 185 626 q 190 661 188 653 q 204 721 197 693 q 207 736 204 725 q 213 760 211 751 q 220 785 215 768 q 230 813 225 803 q 242 835 235 822 q 256 855 249 849 q 273 866 264 861 q 294 868 282 871 q 319 856 306 865 q 340 825 335 846 q 340 775 344 804 q 330 722 336 746 q 314 665 324 697 q 300 621 304 632 q 302 611 299 615 q 311 607 306 607 q 341 603 325 606 q 376 597 357 601 q 408 586 394 593 q 433 569 422 579 q 444 547 444 560 q 432 517 443 533 q 414 501 425 506 q 395 497 403 497 q 370 498 388 496 q 349 500 353 500 q 296 501 310 507 q 278 457 282 496 q 286 218 269 356 q 372 44 308 29 q 390 51 381 46 q 433 59 410 64 q 468 35 456 54 z "},"u":{"ha":538,"x_min":33,"x_max":485,"o":"m 461 215 q 469 158 461 203 q 481 86 478 114 q 478 33 485 58 q 438 9 465 14 q 390 18 410 4 q 350 171 350 46 q 344 178 350 176 q 336 174 339 179 q 85 26 194 -74 q 45 94 57 51 q 38 194 33 138 q 47 285 42 250 q 63 372 51 319 q 65 385 64 381 q 71 415 67 390 q 78 453 75 440 q 88 488 82 467 q 101 523 93 508 q 121 547 110 538 q 160 564 135 561 q 208 556 186 567 q 233 519 231 544 q 217 475 235 507 q 196 436 199 443 q 181 360 189 411 q 165 122 157 221 q 318 400 251 222 q 328 429 319 404 q 341 465 336 454 q 358 490 346 476 q 385 510 369 504 q 432 503 407 515 q 458 467 457 490 q 461 342 463 436 q 461 215 460 247 z "},"v":{"ha":431,"x_min":42,"x_max":424,"o":"m 324 461 q 363 485 338 485 q 406 468 388 486 q 421 426 424 450 q 394 356 419 404 q 367 307 368 308 q 317 178 340 246 q 306 144 313 165 q 295 105 300 122 q 282 67 290 88 q 265 31 274 46 q 244 1 257 15 q 214 -22 231 -14 q 135 -14 168 -44 q 92 69 103 17 q 81 133 85 99 q 72 212 76 167 q 67 275 68 257 q 63 317 64 293 q 59 365 61 342 q 54 407 57 388 q 50 427 54 413 q 44 455 46 442 q 44 475 43 468 q 71 512 50 501 q 115 514 92 522 q 133 502 125 510 q 146 488 142 494 q 155 467 150 481 q 160 448 160 453 q 165 426 161 443 q 176 353 171 392 q 184 268 181 315 q 190 194 188 221 q 197 188 192 189 q 204 193 203 188 q 324 461 260 357 z "},"w":{"ha":653,"x_min":35,"x_max":619,"o":"m 600 474 q 611 306 618 396 q 579 138 604 215 q 561 86 571 108 q 536 37 551 64 q 499 -7 521 10 q 450 -26 476 -24 q 407 -21 426 -29 q 375 1 388 -12 q 351 36 363 15 q 334 76 340 57 q 322 117 328 94 q 316 123 321 122 q 308 119 311 124 q 304 113 307 117 q 285 78 292 90 q 262 40 278 65 q 234 1 246 15 q 205 -33 222 -14 q 172 -60 188 -53 q 140 -72 157 -68 q 104 -68 122 -76 q 69 -41 86 -60 q 44 5 53 -22 q 35 72 35 32 q 35 133 35 113 q 43 203 36 154 q 50 254 50 253 q 56 326 51 263 q 67 431 60 390 q 89 497 75 472 q 143 535 107 529 q 200 506 179 542 q 208 462 211 493 q 201 408 206 431 q 188 354 196 386 q 176 308 179 322 q 161 115 163 224 q 166 108 161 110 q 175 111 171 107 q 247 229 228 196 q 263 260 251 236 q 281 297 274 283 q 304 322 289 310 q 336 336 319 335 q 367 329 353 336 q 390 308 381 322 q 406 279 399 294 q 418 242 413 264 q 427 204 424 221 q 434 165 431 188 q 440 131 438 142 q 447 124 442 125 q 456 129 453 124 q 479 215 472 167 q 487 292 486 264 q 485 387 488 321 q 483 469 483 453 q 508 515 483 503 q 563 515 533 528 q 600 474 592 501 z "},"x":{"ha":446,"x_min":-17,"x_max":403,"o":"m 343 157 q 356 137 346 154 q 374 107 367 119 q 390 76 381 94 q 401 44 399 57 q 401 17 403 31 q 385 -2 399 4 q 350 -7 372 -8 q 311 8 331 -6 q 279 36 292 22 q 250 80 267 50 q 228 121 233 110 q 208 163 222 132 q 202 167 207 167 q 196 163 197 167 q 111 -17 156 83 q 103 -33 108 -21 q 95 -53 99 -46 q 86 -69 92 -60 q 75 -84 81 -79 q 62 -93 69 -89 q 44 -97 54 -97 q 24 -90 35 -96 q -10 -52 -4 -79 q -3 13 -17 -25 q 25 82 10 50 q 61 149 40 114 q 85 193 82 183 q 114 250 100 226 q 138 309 138 290 q 124 364 139 328 q 116 385 122 367 q 107 413 110 404 q 99 438 104 421 q 92 467 94 456 q 88 492 90 478 q 87 519 86 507 q 90 543 88 532 q 119 580 99 571 q 168 575 140 589 q 190 550 181 567 q 202 523 199 533 q 210 484 206 513 q 217 451 215 456 q 222 447 218 447 q 229 450 226 446 q 238 470 229 451 q 251 494 247 489 q 263 515 254 499 q 278 538 272 532 q 292 555 283 544 q 310 569 301 565 q 329 575 319 574 q 381 554 367 579 q 385 497 396 529 q 334 413 374 468 q 285 326 294 358 q 276 293 275 297 q 292 258 276 289 q 343 157 318 201 z "},"y":{"ha":503,"x_min":39,"x_max":463,"o":"m 432 496 q 450 476 443 489 q 459 442 457 463 q 461 409 461 421 q 460 372 461 397 q 458 344 458 347 q 374 -61 453 172 q 196 -274 308 -256 q 135 -265 164 -279 q 114 -215 107 -250 q 162 -170 118 -194 q 214 -133 206 -146 q 252 -67 235 -108 q 271 4 269 -25 q 272 18 271 11 q 272 26 272 25 q 272 30 272 28 q 269 33 271 32 q 264 35 267 33 q 255 39 261 36 q 242 46 249 42 q 167 101 188 81 q 69 264 99 168 q 43 465 39 360 q 47 495 44 483 q 55 519 49 507 q 74 537 61 532 q 104 538 86 542 q 126 529 117 536 q 140 516 135 522 q 148 497 144 510 q 152 478 151 485 q 153 455 153 471 q 156 433 154 439 q 281 147 174 215 q 299 146 289 142 q 310 160 308 150 q 347 461 339 304 q 379 502 349 492 q 432 496 410 513 z "},"z":{"ha":522,"x_min":-1,"x_max":496,"o":"m 447 92 q 476 63 471 83 q 469 24 482 43 q 458 8 465 14 q 444 0 450 3 q 428 -3 439 -3 q 413 -4 418 -4 q 393 -3 407 -4 q 282 16 388 -1 q 126 24 176 33 q 100 15 117 22 q 72 4 83 8 q 45 2 60 0 q 18 17 31 4 q 2 56 0 36 q 22 93 4 76 q 63 124 33 104 q 106 158 92 143 q 199 268 169 228 q 180 269 197 268 q 158 270 163 269 q 139 274 153 271 q 119 281 125 276 q 108 294 114 286 q 100 315 101 303 q 104 344 97 333 q 124 359 111 356 q 151 363 136 363 q 182 363 167 364 q 200 361 190 363 q 216 359 210 360 q 229 358 222 358 q 240 360 236 358 q 250 367 244 363 q 261 381 256 372 q 269 420 269 394 q 258 460 269 446 q 227 480 244 476 q 181 478 210 483 q 146 472 153 472 q 86 485 113 469 q 68 533 60 500 q 124 574 76 564 q 213 581 171 583 q 322 543 278 576 q 377 459 365 510 q 371 344 389 408 q 451 299 414 336 q 443 236 496 253 q 424 231 435 233 q 389 238 411 229 q 356 246 367 246 q 346 246 351 246 q 328 243 332 244 q 317 233 324 242 q 313 230 314 231 q 310 227 313 229 q 307 223 308 225 q 303 218 306 221 q 281 193 292 207 q 256 162 269 179 q 235 135 243 144 q 234 128 232 132 q 240 124 236 124 q 274 120 249 122 q 311 117 300 118 q 344 114 322 117 q 380 108 365 111 q 413 101 394 106 q 447 92 432 97 z "},"{":{"ha":347,"x_min":36,"x_max":472,"o":"m 406 1122 q 447 1121 426 1138 q 470 1078 468 1104 q 453 1033 472 1053 q 417 1019 442 1025 q 381 1006 392 1013 q 328 939 350 986 q 307 880 315 911 q 292 803 299 849 q 282 742 286 758 q 200 536 258 622 q 192 525 197 531 q 187 519 188 519 q 185 514 186 518 q 186 507 185 510 q 190 497 188 504 q 196 485 192 492 q 206 471 200 478 q 213 458 211 464 q 233 386 228 428 q 235 229 242 333 q 224 -126 221 15 q 236 -197 225 -169 q 281 -236 247 -225 q 297 -241 286 -239 q 313 -244 307 -243 q 324 -251 318 -246 q 335 -267 331 -257 q 319 -326 347 -299 q 271 -349 300 -346 q 215 -342 242 -351 q 168 -315 189 -332 q 104 -165 113 -269 q 100 -82 101 -125 q 101 7 99 -39 q 104 89 103 53 q 109 178 106 125 q 114 261 113 231 q 115 343 118 296 q 90 419 111 390 q 65 447 81 432 q 43 469 50 461 q 37 494 36 478 q 51 532 38 511 q 76 567 61 546 q 102 603 92 589 q 124 638 113 618 q 143 679 136 658 q 160 738 153 707 q 173 810 167 769 q 183 869 179 850 q 210 956 193 914 q 254 1035 228 997 q 320 1097 281 1072 q 406 1122 360 1121 z "},"|":{"ha":296,"x_min":74,"x_max":229,"o":"m 228 1121 q 196 351 206 735 q 194 24 189 140 q 207 -154 197 -72 q 210 -176 207 -157 q 214 -202 214 -194 q 210 -222 214 -210 q 194 -239 206 -233 q 82 193 74 -315 q 97 839 88 643 q 107 1004 101 928 q 109 1038 108 1015 q 110 1077 110 1060 q 115 1115 111 1094 q 124 1147 118 1135 q 160 1170 135 1167 q 208 1159 186 1174 q 228 1121 229 1144 z "},"}":{"ha":324,"x_min":-99,"x_max":279,"o":"m 257 568 q 278 534 278 557 q 267 490 279 511 q 241 443 256 469 q 224 406 226 417 q 214 346 217 379 q 210 289 211 313 q 210 226 210 265 q 211 168 211 186 q 210 60 211 96 q 201 -35 208 25 q 178 -142 194 -94 q 135 -232 163 -189 q 1 -354 75 -325 q -69 -340 -40 -369 q -68 -272 -99 -311 q -33 -244 -58 -260 q 0 -221 -8 -229 q 40 -169 24 -199 q 81 -28 71 -115 q 88 148 89 36 q 89 324 86 260 q 106 428 93 383 q 116 455 108 436 q 128 488 124 474 q 132 513 133 503 q 112 551 129 525 q 90 589 94 576 q 78 668 79 624 q 93 821 78 715 q 103 982 108 926 q 92 1025 100 1019 q 71 1027 89 1031 q 47 1025 53 1024 q 6 1057 18 1032 q 11 1106 -7 1082 q 61 1127 29 1125 q 122 1119 93 1129 q 171 1093 151 1110 q 224 935 226 1047 q 212 817 222 894 q 200 703 201 740 q 257 568 197 600 z "},"~":{"ha":483,"x_min":-8,"x_max":465,"o":"m 443 439 q 440 383 464 411 q 382 340 415 354 q 222 368 299 304 q 207 385 218 372 q 185 408 196 399 q 167 419 175 418 q 149 417 157 422 q 136 405 140 411 q 125 388 132 399 q 117 374 118 376 q 74 344 100 349 q 26 363 49 340 q 58 474 -7 401 q 201 517 122 543 q 245 485 213 513 q 305 441 278 457 q 346 442 332 425 q 394 462 363 463 q 443 439 426 461 z "},"":{"ha":293,"x_min":0,"x_max":0,"o":""},"":{"ha":0,"x_min":0,"x_max":0,"o":""},"":{"ha":228,"x_min":79,"x_max":226,"o":"m 200 886 q 208 857 200 875 q 217 826 217 839 q 181 773 215 789 q 125 781 147 757 q 86 865 92 815 q 104 961 81 915 q 129 994 114 981 q 161 1015 144 1008 q 194 1012 178 1021 q 219 976 210 1003 q 223 949 225 963 q 216 929 221 936 q 206 910 211 922 q 200 886 201 899 z "},"":{"ha":228,"x_min":81,"x_max":229,"o":"m 183 1003 q 223 918 217 968 q 204 822 229 868 q 179 790 194 804 q 147 769 164 775 q 115 772 131 763 q 89 807 99 781 q 94 858 81 832 q 108 899 108 885 q 101 927 110 910 q 93 957 93 944 q 127 1012 93 996 q 183 1003 161 1028 z "},"":{"ha":200,"x_min":-14,"x_max":135,"o":"m 89 206 q 128 120 122 171 q 110 24 135 69 q 85 -8 100 6 q 53 -28 69 -22 q 20 -26 36 -35 q -6 8 4 -17 q 0 60 -14 33 q 14 100 14 86 q 7 129 15 111 q -1 158 -1 147 q 33 213 -1 197 q 89 206 67 229 z "},"":{"ha":349,"x_min":61,"x_max":372,"o":"m 343 886 q 351 857 343 875 q 358 826 360 839 q 324 773 358 789 q 268 781 290 757 q 228 865 235 815 q 247 961 222 915 q 272 994 257 981 q 304 1015 288 1008 q 337 1012 321 1021 q 363 976 353 1003 q 358 926 371 953 q 343 886 344 899 m 201 976 q 197 926 210 953 q 182 886 183 899 q 186 867 182 876 q 194 847 190 857 q 199 826 199 838 q 163 773 197 789 q 107 781 129 757 q 68 865 74 815 q 86 961 63 915 q 106 989 94 976 q 131 1008 117 1001 q 157 1017 144 1015 q 182 1008 169 1018 q 201 976 194 997 z "},"":{"ha":347,"x_min":61,"x_max":371,"o":"m 74 957 q 108 1012 74 996 q 164 1003 142 1028 q 203 918 197 968 q 185 822 210 868 q 160 790 175 804 q 128 769 144 775 q 95 772 111 763 q 69 807 79 781 q 75 858 61 832 q 89 899 89 885 q 82 927 90 910 q 74 957 74 944 m 325 1003 q 365 918 358 968 q 346 822 371 868 q 321 790 336 804 q 289 769 306 775 q 256 772 272 763 q 231 807 240 781 q 235 858 222 832 q 250 899 249 885 q 242 927 250 910 q 235 957 233 944 q 269 1012 235 996 q 325 1003 303 1028 z "},"":{"ha":361,"x_min":-14,"x_max":296,"o":"m -1 158 q 33 213 -1 197 q 89 206 67 229 q 128 120 122 171 q 110 24 135 69 q 85 -8 100 6 q 53 -28 69 -22 q 20 -26 36 -35 q -6 8 4 -17 q 0 60 -14 33 q 14 100 14 86 q 7 129 15 111 q -1 158 -1 147 m 250 206 q 290 120 283 171 q 271 24 296 69 q 246 -8 261 6 q 214 -28 231 -22 q 181 -26 197 -35 q 156 8 165 -17 q 160 60 147 33 q 175 100 174 86 q 167 129 175 111 q 160 158 158 147 q 194 213 160 197 q 250 206 228 229 z "}}}
